<!-- Generator: Adobe Illustrator 25.2.1, SVG Export Plug-In  -->
<svg version="1.1" xmlns="http://www.w3.org/2000/svg" xmlns:xlink="http://www.w3.org/1999/xlink" x="0px" y="0px" width="355px"
	 height="262.3px" viewBox="0 0 355 262.3" style="overflow:visible;enable-background:new 0 0 355 262.3;" xml:space="preserve">
<style type="text/css">
	.st0{fill:url(#SVGID_1_);}
	.st1{fill:url(#SVGID_2_);}
	.st2{fill:url(#SVGID_3_);}
	.st3{fill:url(#SVGID_4_);}
	.st4{fill:url(#SVGID_5_);}
	.st5{fill:url(#SVGID_6_);}
</style>
<defs>
</defs>
<g>
	
		<linearGradient id="SVGID_1_" gradientUnits="userSpaceOnUse" x1="-304.8755" y1="-6352.8652" x2="-144.1154" y2="-6579.0454" gradientTransform="matrix(1 0 0 -1 324 -6289.7852)">
		<stop  offset="1.000000e-04" style="stop-color:#3DD4FF"/>
		<stop  offset="1" style="stop-color:#B090FF"/>
	</linearGradient>
	<path class="st0" d="M149.3,262.3H49.8l-0.3-0.5L0,176.2l0.3-0.5L49.8,90h99.5l0.3,0.5l49.5,85.7l-0.3,0.5L149.3,262.3z
		 M50.9,260.3h97.2l48.6-84.2L148.1,92H50.9L2.3,176.2L50.9,260.3z"/>
	<g>
		
			<linearGradient id="SVGID_2_" gradientUnits="userSpaceOnUse" x1="-148.8755" y1="-6262.8652" x2="11.8846" y2="-6489.0454" gradientTransform="matrix(1 0 0 -1 324 -6289.7852)">
			<stop  offset="1.000000e-04" style="stop-color:#3DD4FF"/>
			<stop  offset="1" style="stop-color:#B090FF"/>
		</linearGradient>
		<path class="st1" d="M304.1,170.3l48.6-84.2L304.1,2h-97.2l-48.6,84.2l48.6,84.2H304.1z"/>
		
			<linearGradient id="SVGID_3_" gradientUnits="userSpaceOnUse" x1="-148.8753" y1="-6262.8657" x2="11.8843" y2="-6489.0449" gradientTransform="matrix(1 0 0 -1 324 -6289.7852)">
			<stop  offset="1.000000e-04" style="stop-color:#3DD4FF"/>
			<stop  offset="1" style="stop-color:#B090FF"/>
		</linearGradient>
		<path class="st2" d="M305.3,172.3h-99.5l-0.6-1L156,86.2L205.8,0h99.5l0.6,1L355,86.2L305.3,172.3z M208.1,168.3H303l47.4-82.2
			L303,4h-94.9l-47.4,82.2L208.1,168.3z"/>
	</g>
</g>
</svg>
