<svg viewBox="0 0 575 49" xmlns="http://www.w3.org/2000/svg" fill-rule="evenodd" clip-rule="evenodd" stroke-linejoin="round" stroke-miterlimit="2"><path d="M74.51 2.435h468.707c8.165 0 14.783 6.618 14.783 14.782C558 25.382 551.382 32 543.217 32H73.006a145.083 145.083 0 01-31.586-3.48l-9.611-2.143V8.602l8.224-2.012A145.122 145.122 0 0174.51 2.435z" fill="url(#prefix___Linear1)" fill-rule="nonzero" transform="translate(7.106 7.283)"/><path d="M5.188 14.43l26.077-5.647v17.413L5.17 20.378a3.044 3.044 0 01.018-5.948z" fill="url(#prefix___Linear2)" fill-rule="nonzero" transform="translate(7.106 7.283)"/><path d="M74.51 2.435h468.707c8.165 0 14.783 6.618 14.783 14.782C558 25.382 551.382 32 543.217 32H73.006a145.083 145.083 0 01-31.586-3.48l-9.611-2.143V8.602l8.224-2.012A145.122 145.122 0 0174.51 2.435z" fill="url(#prefix___Linear3)" fill-rule="nonzero" transform="translate(7.106 7.283)"/><path d="M5.188 14.43l26.077-5.647v17.413L5.17 20.378a3.044 3.044 0 01.018-5.948z" fill="url(#prefix___Linear4)" fill-rule="nonzero" transform="translate(7.106 7.283)"/><path fill="#c4c4c4" fill-rule="nonzero" d="M38.371 18.787h.544v11.97h-.544z"/><path d="M563.261 17.308a6.533 6.533 0 00-6.53-6.53 6.533 6.533 0 00-6.53 6.53v482.477a6.533 6.533 0 006.53 6.53 6.533 6.533 0 006.53-6.53V17.308z" fill="url(#prefix___Linear5)" transform="rotate(90 550.113 17.972)"/><path d="M511.886 19.897a1.686 1.686 0 00-.834.43 1.649 1.649 0 00-.533 1.2v.104l.13-.008c.51-.028.97-.356 1.218-.867.117-.24.163-.425.174-.696.01-.217.026-.2-.155-.163zm-.229 1.839c-.156.029-.31.076-.547.167-.433.167-.495.182-.638.157a2.948 2.948 0 01-.347-.115c-.465-.177-.615-.212-.855-.2a1.836 1.836 0 00-1.425.816 2.48 2.48 0 00-.315.706c-.105.409-.116.92-.03 1.418.092.539.294 1.107.562 1.577.223.39.625.892.842 1.05.191.139.32.183.528.18.19-.001.273-.022.561-.141.258-.108.361-.137.537-.155.257-.026.47.013.784.144.278.117.403.148.582.149.27 0 .563-.155.798-.422.274-.311.618-.866.778-1.257.052-.125.126-.333.121-.337a1.271 1.271 0 00-.073-.038 1.688 1.688 0 01-.638-2.46 2.07 2.07 0 01.402-.423l.101-.075c.015-.013-.079-.137-.189-.247a1.783 1.783 0 00-.833-.466 1.237 1.237 0 00-.376-.043 1.65 1.65 0 00-.33.015z" fill="#7a7b7f"/><path d="M516.881 27.875v-5.748h2.156c.441 0 .812.082 1.111.247.301.165.53.39.682.679.155.287.233.612.233.977 0 .369-.078.696-.233.982a1.663 1.663 0 01-.688.677c-.303.162-.676.244-1.12.244h-1.428v-.856h1.288c.258 0 .47-.045.634-.135a.846.846 0 00.365-.37 1.17 1.17 0 00.121-.542c0-.204-.04-.384-.12-.54a.819.819 0 00-.368-.361c-.165-.088-.377-.132-.637-.132h-.955v4.878h-1.04zm6.888.084c-.432 0-.805-.09-1.12-.27a1.828 1.828 0 01-.72-.768c-.169-.333-.254-.725-.254-1.176 0-.444.085-.833.253-1.168.17-.337.408-.598.713-.786.305-.19.663-.283 1.075-.283.266 0 .516.043.752.129.238.084.447.215.63.393.182.178.326.404.431.679.105.273.157.599.157.977v.31h-3.533v-.683h2.56a1.101 1.101 0 00-.127-.52.924.924 0 00-.345-.362.972.972 0 00-.51-.132.988.988 0 00-.548.152c-.158.099-.28.23-.368.393-.086.16-.13.338-.132.53v.598c0 .25.046.466.138.646a.974.974 0 00.384.409c.165.094.357.14.578.14.148 0 .282-.02.402-.061a.9.9 0 00.311-.188.778.778 0 00.2-.306l.948.107c-.06.25-.174.469-.342.656-.167.186-.38.33-.64.433-.26.1-.558.15-.893.15zm3.793-2.61v2.526h-1.016v-4.311h.971v.733h.05a1.23 1.23 0 01.475-.576c.218-.142.49-.213.811-.213.297 0 .556.063.777.19.223.128.395.312.517.554.123.24.184.534.182.878v2.745h-1.016v-2.588c0-.288-.075-.513-.225-.676-.147-.163-.352-.244-.614-.244a.943.943 0 00-.475.118.81.81 0 00-.322.334 1.122 1.122 0 00-.115.53zm5.68 2.61c-.43 0-.8-.094-1.108-.283a1.889 1.889 0 01-.71-.783 2.587 2.587 0 01-.247-1.157c0-.437.084-.824.252-1.16.17-.336.406-.597.713-.785.31-.19.674-.283 1.095-.283.35 0 .66.064.93.194.27.127.486.307.647.54a1.6 1.6 0 01.275.815h-.97a.923.923 0 00-.282-.52c-.146-.14-.34-.21-.586-.21a.923.923 0 00-.548.169c-.157.11-.279.269-.367.477a1.951 1.951 0 00-.129.747c0 .293.043.546.13.757.085.21.205.372.361.486a.927.927 0 00.553.168.925.925 0 00.401-.084.797.797 0 00.3-.25.949.949 0 00.166-.395h.971a1.693 1.693 0 01-.269.81 1.6 1.6 0 01-.635.55 2.12 2.12 0 01-.943.197zm2.681-.084v-4.311h1.016v4.31h-1.016zm.511-4.923a.59.59 0 01-.415-.16.514.514 0 01-.174-.39.51.51 0 01.174-.39.584.584 0 01.415-.163c.163 0 .301.054.415.163a.51.51 0 01.174.39.514.514 0 01-.174.39.583.583 0 01-.415.16zm2.566-.825v5.748h-1.016v-5.748H539z" fill="#7a7b7f" fill-rule="nonzero"/><defs><linearGradient id="prefix___Linear1" x1="0" y1="0" x2="1" y2="0" gradientUnits="userSpaceOnUse" gradientTransform="rotate(90 243.23 245.664) scale(29.7467)"><stop offset="0" stop-color="#fff" stop-opacity="0"/><stop offset=".6" stop-color="#fff" stop-opacity="0"/><stop offset="1" stop-color="#dedede"/></linearGradient><linearGradient id="prefix___Linear2" x1="0" y1="0" x2="1" y2="0" gradientUnits="userSpaceOnUse" gradientTransform="rotate(90 243.23 245.664) scale(29.7467)"><stop offset="0" stop-color="#fff" stop-opacity="0"/><stop offset=".6" stop-color="#fff" stop-opacity="0"/><stop offset="1" stop-color="#dedede"/></linearGradient><linearGradient id="prefix___Linear3" x1="0" y1="0" x2="1" y2="0" gradientUnits="userSpaceOnUse" gradientTransform="rotate(90 246.676 249.11) scale(29.7467)"><stop offset="0" stop-color="#bcbcbc"/><stop offset=".81" stop-color="#fff"/><stop offset="1" stop-color="#fff"/></linearGradient><linearGradient id="prefix___Linear4" x1="0" y1="0" x2="1" y2="0" gradientUnits="userSpaceOnUse" gradientTransform="rotate(90 246.676 249.11) scale(29.7467)"><stop offset="0" stop-color="#bcbcbc"/><stop offset=".81" stop-color="#fff"/><stop offset="1" stop-color="#fff"/></linearGradient><linearGradient id="prefix___Linear5" x1="0" y1="0" x2="1" y2="0" gradientUnits="userSpaceOnUse" gradientTransform="translate(550.201 299.902) scale(13.059)"><stop offset="0" stop-color="#f7f7f7"/><stop offset="1" stop-color="#f0f0f0"/></linearGradient></defs></svg>