<svg id="visual" viewBox="0 0 900 600" width="900" height="600" xmlns="http://www.w3.org/2000/svg" xmlns:xlink="http://www.w3.org/1999/xlink" version="1.1">
	<g>
		<g transform="translate(732 375)">
			<path d="M76.7 -77.7C99.2 -54.2 117.2 -27.1 120.7 3.5C124.2 34.2 113.4 68.3 90.8 92.1C68.3 116 34.2 129.4 1.4 128.1C-31.4 126.7 -62.9 110.5 -85.4 86.7C-108 62.9 -121.6 31.4 -118.5 3.1C-115.4 -25.3 -95.6 -50.5 -73.1 -74.1C-50.5 -97.6 -25.3 -119.4 0.9 -120.3C27.1 -121.3 54.2 -101.3 76.7 -77.7Z" fill="#26282B">
			</path>
		</g>
		<g transform="translate(245 49)">
			<path d="M77.7 -78.4C98.5 -57 111.5 -28.5 112.9 1.4C114.4 31.3 104.2 62.7 83.4 84.7C62.7 106.6 31.3 119.2 4.6 114.6C-22.1 110 -44.2 88.1 -61.7 66.2C-79.3 44.2 -92.2 22.1 -96.2 -4C-100.1 -30 -95.1 -60.1 -77.6 -81.5C-60.1 -102.9 -30 -115.7 -0.8 -114.9C28.5 -114.1 57 -99.8 77.7 -78.4Z" fill="#26282B">
			</path>
		</g>
		<g transform="translate(215 478)">
			<path d="M14.3 -13.9C18.7 -10 22.4 -5 22.8 0.4C23.2 5.8 20.3 11.6 15.9 15.9C11.6 20.2 5.8 23 -0.2 23.2C-6.2 23.4 -12.4 21 -16.1 16.7C-19.9 12.4 -21.1 6.2 -21 0.1C-20.9 -6 -19.5 -12.1 -15.8 -16C-12.1 -20 -6 -21.9 -0.5 -21.4C5 -20.8 10 -17.9 14.3 -13.9Z" fill="#26282B">
			</path>
		</g>
		<g transform="translate(693 37)">
			<path d="M27.3 -26C34.2 -20.4 38 -10.2 36.7 -1.3C35.3 7.6 29 15.1 22.1 21.3C15.1 27.4 7.6 32.1 0 32.1C-7.5 32.1 -15.1 27.4 -22.6 21.2C-30.1 15.1 -37.6 7.5 -38.4 -0.8C-39.2 -9.1 -33.2 -18.2 -25.7 -23.9C-18.2 -29.5 -9.1 -31.8 0.5 -32.3C10.2 -32.9 20.4 -31.7 27.3 -26Z" fill="#26282B">
			</path>
		</g>
		<g transform="translate(14 246)">
			<path d="M47.6 -49C59.7 -35.5 66.2 -17.7 69.5 3.3C72.8 24.3 72.8 48.6 60.7 65.8C48.6 83 24.3 93.1 0.5 92.6C-23.3 92.1 -46.5 80.9 -58.6 63.7C-70.8 46.5 -71.8 23.3 -69.9 1.8C-68.1 -19.6 -63.4 -39.1 -51.3 -52.7C-39.1 -66.3 -19.6 -73.9 -0.9 -73C17.7 -72.1 35.5 -62.6 47.6 -49Z" fill="#26282B">
			</path>
		</g>
	</g>
</svg>
