<svg id="visual" viewBox="0 0 900 600" width="900" height="600" xmlns="http://www.w3.org/2000/svg" xmlns:xlink="http://www.w3.org/1999/xlink" version="1.1">
	<g>
		<g transform="translate(736 463)">
			<path d="M50.3 -48C63.4 -37.2 71 -18.6 71.7 0.6C72.3 19.8 65.9 39.7 52.8 56.1C39.7 72.5 19.8 85.5 0.6 84.9C-18.7 84.4 -37.4 70.3 -53.8 53.9C-70.2 37.4 -84.3 18.7 -86 -1.7C-87.7 -22.1 -76.9 -44.1 -60.5 -54.9C-44.1 -65.8 -22.1 -65.3 -1.7 -63.6C18.6 -61.9 37.2 -58.8 50.3 -48Z" fill="none" stroke="#26282B" stroke-width="10">
			</path>
		</g>
		<g transform="translate(391 318)">
			<path d="M24.2 -25.7C30.2 -18.1 33.3 -9.1 32.8 -0.4C32.4 8.2 28.5 16.4 22.4 22.9C16.4 29.5 8.2 34.5 -0.4 34.9C-9.1 35.4 -18.1 31.3 -26 24.7C-33.8 18.1 -40.4 9.1 -40.8 -0.4C-41.2 -9.8 -35.4 -19.7 -27.5 -27.3C-19.7 -34.8 -9.8 -40.1 -0.4 -39.7C9.1 -39.3 18.1 -33.3 24.2 -25.7Z" fill="none" stroke="#26282B" stroke-width="10">
			</path>
		</g>
		<g transform="translate(665 154)">
			<path d="M16.1 -15.6C20.7 -11.4 24.2 -5.7 24.2 0C24.3 5.8 20.8 11.5 16.2 15.2C11.5 18.9 5.8 20.5 0.5 20C-4.7 19.5 -9.3 16.7 -13.2 13C-17 9.3 -20 4.7 -20.7 -0.7C-21.4 -6.1 -19.9 -12.2 -16 -16.3C-12.2 -20.4 -6.1 -22.6 -0.2 -22.4C5.7 -22.2 11.4 -19.7 16.1 -15.6Z" fill="none" stroke="#26282B" stroke-width="10">
			</path>
		</g>
		<g transform="translate(153 175)">
			<path d="M25 -22.4C33.2 -16.8 41.1 -8.4 40.8 -0.3C40.4 7.7 31.8 15.4 23.6 23.9C15.4 32.4 7.7 41.6 -1 42.6C-9.7 43.6 -19.4 36.3 -26.9 27.9C-34.3 19.4 -39.5 9.7 -39.4 0.1C-39.2 -9.4 -33.8 -18.9 -26.3 -24.5C-18.9 -30.1 -9.4 -31.9 -0.5 -31.4C8.4 -30.9 16.8 -28.1 25 -22.4Z" fill="none" stroke="#26282B" stroke-width="10">
			</path>
		</g>
		<g transform="translate(109 434)">
			<path d="M20.1 -17.6C27.1 -13.1 34.6 -6.6 35.9 1.4C37.3 9.3 32.7 18.7 25.7 25.6C18.7 32.4 9.3 36.8 0.5 36.4C-8.4 35.9 -16.9 30.6 -22 23.7C-27.1 16.9 -28.9 8.4 -28.1 0.8C-27.4 -6.9 -24.1 -13.8 -18.9 -18.3C-13.8 -22.8 -6.9 -24.9 -0.2 -24.8C6.6 -24.6 13.1 -22.2 20.1 -17.6Z" fill="none" stroke="#26282B" stroke-width="10">
			</path>
		</g>
		<g transform="translate(357 106)">
			<path d="M19.9 -19.1C25 -14.8 27.8 -7.4 27.2 -0.6C26.7 6.3 22.7 12.5 17.6 17.5C12.5 22.5 6.3 26.2 -0.2 26.3C-6.6 26.5 -13.2 23.2 -18.6 18.2C-24 13.2 -28.2 6.6 -27.8 0.5C-27.3 -5.7 -22.2 -11.4 -16.8 -15.6C-11.4 -19.9 -5.7 -22.7 0.9 -23.5C7.4 -24.4 14.8 -23.3 19.9 -19.1Z" stroke="#26282B" fill="none" stroke-width="10">
			</path>
		</g>
	</g>
</svg>
