<svg id="visual" viewBox="0 0 960 540" width="960" height="540" xmlns="http://www.w3.org/2000/svg" xmlns:xlink="http://www.w3.org/1999/xlink" version="1.1"><rect x="0" y="0" width="960" height="540" fill="#FFFFFF"></rect><defs><linearGradient id="grad1_0" x1="43.8%" y1="0%" x2="100%" y2="100%"><stop offset="14.444444444444446%" stop-color="#ffffff" stop-opacity="1"></stop><stop offset="85.55555555555554%" stop-color="#ffffff" stop-opacity="1"></stop></linearGradient></defs><defs><linearGradient id="grad2_0" x1="0%" y1="0%" x2="56.3%" y2="100%"><stop offset="14.444444444444446%" stop-color="#ffffff" stop-opacity="1"></stop><stop offset="85.55555555555554%" stop-color="#ffffff" stop-opacity="1"></stop></linearGradient></defs><g transform="translate(960, 0)"><path d="M0 135C-14.2 133.8 -28.5 132.6 -41.7 128.4C-54.9 124.1 -67.2 116.8 -78.2 107.6C-89.2 98.4 -99 87.3 -102.7 74.6C-106.5 62 -104.1 47.9 -108.4 35.2C-112.8 22.5 -123.9 11.3 -135 0L0 0Z" fill="#5F85DB"></path></g><g transform="translate(0, 540)"><path d="M0 -135C15.4 -135.7 30.9 -136.5 41.7 -128.4C52.6 -120.3 58.8 -103.4 67.6 -93C76.4 -82.6 87.8 -78.7 97.9 -71.1C108 -63.5 116.7 -52.3 122.7 -39.9C128.7 -27.4 131.8 -13.7 135 0L0 0Z" fill="#5F85DB"></path></g></svg>