<!-- ?xml version="1.0" standalone="no"? -->
<svg id="sw-js-blob-svg" viewBox="0 0 100 100" xmlns="http://www.w3.org/2000/svg" version="1.1">
	<defs>
		<linearGradient id="sw-gradient" x1="0" x2="1" y1="1" y2="0">
			<stop id="stop1" stop-color="rgba(144, 184, 248, 1)" offset="0%" data-darkreader-inline-stopcolor="" style="--darkreader-inline-stopcolor: #073173;">
			</stop>
			<stop id="stop2" stop-color="rgba(95, 133, 219, 1)" offset="100%" data-darkreader-inline-stopcolor="" style="--darkreader-inline-stopcolor: #1f408a;">
			</stop>
		</linearGradient>
	</defs>
	<path fill="url(#sw-gradient)" d="M20.7,-33.5C27.5,-31.9,34.3,-27.8,36.8,-21.8C39.4,-15.8,37.7,-7.9,35.9,-1C34.1,5.8,32.1,11.6,29.5,17.5C26.9,23.4,23.6,29.3,18.6,32.5C13.6,35.7,6.8,36.2,-0.2,36.6C-7.3,37,-14.5,37.4,-21.2,35.1C-27.8,32.8,-33.9,28,-37.8,21.7C-41.7,15.4,-43.3,7.7,-43.2,0C-43.2,-7.6,-41.4,-15.2,-36.6,-20C-31.9,-24.9,-24.3,-26.9,-17.7,-28.7C-11.1,-30.5,-5.6,-32.1,0.7,-33.3C6.9,-34.5,13.8,-35.2,20.7,-33.5Z" width="100%" height="100%" transform="translate(50 50)" stroke-width="0" style="transition: all 0.3s ease 0s;" stroke="url(#sw-gradient)">
	</path>
</svg>
