<svg width="446" height="371" viewBox="0 0 446 371" fill="none" xmlns="http://www.w3.org/2000/svg">
<path opacity="0.18" d="M41.324 186.424C52.5077 174.573 69.1534 169.04 80.2465 157.104C95.297 140.912 97.2184 116.418 109.182 97.8496C117.64 84.7531 130.757 75.1816 145.01 68.9054C169.949 58.0439 197.988 56.6446 223.883 64.9692C235.834 68.8691 247.259 74.8309 259.73 76.3667C281.378 79.0271 305.528 68.4277 324.034 79.9945C336.723 87.9153 341.496 103.648 346.317 117.821C352.764 136.764 362.534 146.318 372.026 174.053C376.43 186.931 391.119 195.777 390.605 209.376C390.466 213.125 389.294 217.006 386.533 219.534C384.315 221.565 381.343 222.509 378.473 223.385C279.167 253.589 175.66 267.638 71.9025 264.997C51.4202 264.471 39.1066 261.097 33.2821 241.385C27.6389 222.297 26.5997 202.017 41.324 186.424Z" fill="#3E7CFF"/>
<path d="M282.29 143.882C282.737 142.4 283.849 141.197 284.332 139.728C284.731 138.518 284.683 137.212 285.003 135.985C285.584 134.027 286.904 132.373 288.683 131.371C290.456 130.392 292.429 129.829 294.453 129.727C298.776 129.382 303.09 130.513 306.688 132.937C310.275 135.393 312.781 139.137 313.684 143.392C313.859 144.735 314.135 146.063 314.512 147.364C314.977 148.634 315.914 149.837 317.225 150.164L317.098 151.675C318.29 151.916 319.385 152.503 320.245 153.364C321.105 154.224 321.691 155.319 321.932 156.512C322.306 158.526 321.642 160.678 322.282 162.625C322.886 164.439 324.469 165.806 324.699 167.668C324.754 168.816 324.526 169.961 324.034 171C323.096 173.442 322.077 175.849 320.977 178.219C319.291 176.405 317.533 174.591 315.261 173.612C313.896 173.007 312.409 172.802 311.032 172.324C303.54 169.76 300.017 160.872 292.997 157.208C291.42 156.379 289.408 156.107 287.921 155.17C286.803 154.463 286.773 153.495 286.109 152.455C284.302 149.674 281.136 147.745 282.29 143.882Z" fill="#3F3D56"/>
<path d="M286.55 161.17C286.985 163.196 288.429 164.847 289.945 166.262C290.731 166.993 291.595 167.749 291.854 168.795C291.899 169.14 292.002 169.475 292.157 169.787C292.586 170.391 293.546 170.307 294.229 169.98C295.042 169.558 295.749 168.958 296.299 168.226C296.849 167.493 297.228 166.646 297.407 165.748C297.753 163.946 297.542 162.081 296.803 160.403C296.165 158.852 295.205 157.454 293.988 156.301C292.77 155.149 291.322 154.267 289.74 153.715C286.03 152.609 286.066 158.903 286.55 161.17Z" fill="#3F3D56"/>
<path opacity="0.18" d="M445.957 251.008C446.697 243.276 437.797 239.307 430.836 239.047C416.299 238.51 402.004 242.666 387.661 245.344C350.059 252.432 311.518 249.711 273.602 254.09C244.193 257.486 215.339 265.123 186.367 271.703C152.345 279.424 118.097 285.691 83.7621 291.421C66.9673 294.226 49.9835 297.911 33.0645 299.522C25.2612 300.269 3.76816 299.015 1.07883 311.507C0.436205 314.48 3.74656 316.429 6.38728 317.225C28.1935 323.823 50.0267 330.422 72.2703 334.94C86.7052 337.877 101.351 339.946 115.321 344.947C127.542 349.326 139.082 355.882 151.265 360.352C171.9 367.922 193.879 369.327 215.566 370.666C220.966 371.004 226.366 371.329 231.686 370.334C238.533 369.049 244.884 365.623 251.127 362.234L436.49 261.606" fill="#1D2741"/>
<path d="M113.314 169.906L122.576 149.125C122.576 149.125 132.612 144.288 139.554 148.466C146.497 152.644 140.618 166.708 139.554 171.152C138.491 175.596 131.645 177.331 129.041 175.3C126.437 173.268 123.029 179.284 123.029 179.284L113.314 169.906Z" fill="url(#paint0_linear_970_1430)"/>
<path d="M443.007 251.312L175.48 349.836C164.165 354.004 151.816 354.056 140.469 349.981L6.95608 301.995C5.95244 301.637 5.01592 301.102 4.18756 300.414C2.44887 298.958 1.32967 296.855 1.06933 294.555C1.02246 294.165 0.999098 293.771 0.999386 293.378C0.960474 291.268 1.63987 289.211 2.91858 287.567C4.1973 285.923 5.99382 284.797 7.99354 284.387L20.5422 281.653L155.798 252.151L303.164 220L364.713 230.59L409.639 238.338L443.007 251.312Z" fill="url(#paint1_linear_970_1430)"/>
<path d="M446 234.653C446 238.938 444.749 243.118 442.42 246.619C440.09 250.119 436.796 252.77 432.989 254.207L171.525 352.833C160.466 357.006 148.397 357.057 137.307 352.978L6.80812 304.924C5.82722 304.565 4.91193 304.03 4.10234 303.341L1.06616 297.476L0.997803 297.343V270.994L152.311 255.022L356.47 233.445L436.026 225.048C437.798 224.859 439.583 225.228 441.159 226.109C442.734 226.99 444.03 228.344 444.884 230.002" fill="#3E7CFF"/>
<path d="M446 234.653C446 238.938 444.746 243.118 442.412 246.618C440.077 250.119 436.775 252.77 432.96 254.207L170.91 352.833C159.826 357.005 147.729 357.057 136.615 352.978L5.82335 304.924C4.84025 304.565 3.9229 304.03 3.1115 303.341L0.0685094 297.476L0 297.343V270.994L151.653 255.022L356.269 233.445L436.003 225.048C437.779 224.859 439.569 225.228 441.148 226.109C442.727 226.99 444.025 228.344 444.881 230.002" fill="url(#paint2_linear_970_1430)"/>
<path d="M444.991 230C444.024 232.905 442.454 235.545 440.395 237.727C438.336 239.908 435.841 241.575 433.093 242.605L171.552 340.848C160.49 345.003 148.416 345.051 137.324 340.987L6.80983 293.141C5.82894 292.785 4.91336 292.254 4.10325 291.57L1.06618 285.722L0.997803 285.59V270.812L152.355 254.904L356.563 233.412L436.142 225.048C437.915 224.86 439.701 225.227 441.277 226.105C442.853 226.982 444.148 228.331 445.002 229.982" fill="url(#paint3_linear_970_1430)"/>
<path d="M438.913 225.303L170.955 327.811C159.934 332.014 147.904 332.064 136.853 327.951L6.7859 279.574C-1.45721 276.532 -0.707834 263.757 7.83615 261.822L282.669 196.667C286.111 195.849 289.671 195.783 293.137 196.473L431.879 222.76C432.946 222.961 439.94 224.907 438.913 225.303Z" fill="#3E7CFF"/>
<path d="M288.816 171.955C288.816 171.955 276.375 186.714 271.807 191.552C265.602 198.124 248.147 191.552 248.147 191.552L255.234 206.002L262.237 206.976L286.634 189.441L288.816 171.955Z" fill="url(#paint4_linear_970_1430)"/>
<path d="M244.751 187.548L244.123 185.843H247.065V184.616H249.524V183.419L253.681 184.707L259.868 186.206L261.512 185.487L280.852 190.118L280.556 191.249L260.883 199.659L252.467 198.275L244.751 187.548ZM170.048 175.347C170.048 175.347 173.009 158.556 173.782 153.047C175.19 142.95 179.099 139.473 183.183 138.923C199.986 136.674 204.427 136.19 222.456 138.742C231.332 139.999 233.205 174.24 233.562 183.89C233.619 185.503 233.159 187.092 232.25 188.425L225.961 192.918L224.1 208.717L178.658 211.105L178.229 193.413L160.278 193.002L160.816 179.301L170.048 175.347Z" fill="#3E7CFF"/>
<path d="M178.235 193.414L180.869 155.509C180.869 155.509 198.838 154.977 198.76 157.765C198.681 160.552 185.661 186.225 185.661 186.225L178.235 193.414Z" fill="url(#paint5_linear_970_1430)"/>
<path d="M209.261 136.953C210.311 136.791 211.386 136.98 212.318 137.491C212.318 137.491 210.082 147.262 201.769 151.029C193.455 154.796 191.987 141.536 191.987 141.536L209.261 136.953Z" fill="url(#paint6_linear_970_1430)"/>
<path d="M156.079 178.001C155.838 177.981 155.595 178.02 155.372 178.116C154.865 178.401 154.919 179.199 155.3 179.64C155.732 180.031 156.231 180.341 156.774 180.553C156.886 180.599 156.988 180.667 157.073 180.753C157.159 180.839 157.225 180.942 157.27 181.055C157.3 181.224 157.274 181.398 157.197 181.551C156.677 182.808 155.161 183.25 153.856 183.625C151.877 184.196 149.961 184.964 148.134 185.916C147.909 186.001 147.723 186.167 147.614 186.382C147.433 186.926 148.219 187.265 148.775 187.301C150.16 187.404 151.552 187.404 152.937 187.301C152.575 187.555 152.158 187.905 152.255 188.359C152.351 188.812 152.774 188.933 153.161 188.964C153.552 188.948 153.943 188.99 154.321 189.091C154.925 189.338 155.203 190.088 155.759 190.463C156.313 190.762 156.957 190.85 157.572 190.711C158.745 190.572 159.903 190.319 161.028 189.955C161.689 189.777 162.306 189.464 162.84 189.036C163.436 188.41 163.853 187.635 164.049 186.793C164.617 184.979 165.348 181.351 163.765 179.797C162.182 178.243 158.134 178.056 156.079 178.001Z" fill="url(#paint7_linear_970_1430)"/>
<path d="M123.024 179.283L136.509 201.129C136.509 201.129 140.841 208.935 145.941 207.877C151.04 206.819 155.813 200.428 155.813 200.428L162.586 207.393C162.586 207.393 151.922 225.411 140.273 223.833C133.79 222.956 119.894 209.461 119.894 209.461L123.024 179.283Z" fill="#3E7CFF"/>
<path d="M123.024 179.283L136.509 201.129C136.509 201.129 140.841 208.935 145.941 207.877C151.04 206.819 155.813 200.428 155.813 200.428L162.586 207.393C162.586 207.393 151.922 225.411 140.273 223.833C133.79 222.956 119.894 209.461 119.894 209.461L123.024 179.283Z" fill="url(#paint8_linear_970_1430)"/>
<path d="M7.98218 259.702L266.493 206L412.076 234.244L180.397 317L7.98218 259.702Z" fill="url(#paint9_linear_970_1430)"/>
<path opacity="0.18" d="M152.091 275.864C154.846 285.079 165.021 291.403 174.495 289.771C180.839 288.688 186.21 284.649 191.763 281.384C205.462 273.376 221.249 269.671 237.078 270.749C246.521 271.42 256.569 273.693 265.076 269.539C270.973 266.655 275.1 261.074 280.556 257.446C285.172 254.363 290.58 252.736 295.576 250.336C303.358 246.599 312.198 236.786 324.705 227.656C332.088 222.268 344.915 217.286 348.317 213.495C341.314 211.59 334.982 219.65 324.705 220.751C303.213 222.994 274.846 221.609 259.796 223.55C241.845 225.86 223.876 228.176 206.143 231.779C168.266 239.47 131.301 249.526 93.1578 256.013C85.5812 257.307 66.0172 258.432 61.2984 265.972C54.2656 277.248 76.5544 282.527 83.7565 283.41C89.5266 284.099 153.692 281.215 152.091 275.864Z" fill="#1D2741"/>
<path d="M233.217 246.448C233.217 246.448 225.115 246.739 223.622 248.77C222.13 250.802 225.139 252.477 225.139 252.477L241.325 245.874L233.217 246.448ZM228.039 209.462C228.039 209.462 232.305 209.233 234.329 212.564C236.353 215.896 236.353 223.829 236.353 223.829C236.353 223.829 232.945 228.091 229.157 226.622C225.369 225.153 226.952 216.827 226.952 216.827L228.039 209.462Z" fill="#25233A"/>
<path d="M186.651 238.678L200.318 231.138L199.883 217.135C199.883 217.135 183.92 223.127 183.655 223.931C183.389 224.735 186.651 238.678 186.651 238.678Z" fill="url(#paint10_linear_970_1430)"/>
<path d="M177.963 200.09C177.963 200.09 166.441 226.839 169.994 234.482C172.036 238.872 177.178 240.208 181.178 240.528C182.606 240.652 184.035 240.287 185.228 239.491C186.421 238.696 187.309 237.518 187.745 236.151C190.591 227.196 197.545 209.909 201.328 239.718C201.932 244.616 218.722 242.258 221.459 239.863C224.196 237.469 230.462 222.649 230.462 222.649C230.462 222.649 229.139 218.024 226.511 216.826C226.511 216.826 230.021 203.675 224.505 201.601C224.487 201.607 184.984 212.376 177.963 200.09Z" fill="#3E7CFF"/>
<path d="M177.963 200.09C177.963 200.09 166.441 226.839 169.994 234.482C172.036 238.872 177.178 240.208 181.178 240.528C182.606 240.652 184.035 240.287 185.228 239.491C186.421 238.696 187.309 237.518 187.745 236.151C190.591 227.196 197.545 209.909 201.328 239.718C201.932 244.616 218.722 242.258 221.459 239.863C224.196 237.469 230.462 222.649 230.462 222.649C230.462 222.649 229.139 218.024 226.511 216.826C226.511 216.826 230.021 203.675 224.505 201.601C224.487 201.607 184.984 212.376 177.963 200.09Z" fill="url(#paint11_linear_970_1430)"/>
<path d="M118.425 223.828C118.425 223.828 168.489 237.614 177.752 242.034C187.014 246.454 189.068 246.871 189.068 246.871L185.516 257.192L89.1943 247.276L118.425 223.828Z" fill="#3E7CFF"/>
<path d="M118.425 223.828C118.425 223.828 168.489 237.614 177.752 242.034C187.014 246.454 189.068 246.871 189.068 246.871L185.516 257.192L89.1943 247.276L118.425 223.828Z" fill="url(#paint12_linear_970_1430)"/>
<path d="M186.911 253.105L168.133 248.371L157.94 235.25L116.655 248.371L118.492 251.128L185.516 257.162L186.911 253.105Z" fill="url(#paint13_linear_970_1430)"/>
<path d="M55.6673 281.215L91.4902 292.757C91.7502 292.849 92.0338 292.849 92.2938 292.757L92.5778 292.648C92.8109 292.558 93.0104 292.398 93.1487 292.19C93.287 291.981 93.3574 291.735 93.3501 291.485C93.3428 291.235 93.2582 290.994 93.108 290.794C92.9578 290.594 92.7493 290.445 92.5113 290.369L56.4044 278.941C56.1505 278.85 55.8729 278.85 55.6189 278.941C55.3873 279.031 55.1889 279.19 55.0507 279.396C54.9125 279.602 54.8412 279.846 54.8465 280.095C54.8517 280.343 54.9334 280.584 55.0802 280.784C55.2271 280.985 55.4321 281.135 55.6673 281.215Z" fill="#25233A"/>
<path d="M332.559 211.899L377.681 220.618C378.846 220.847 380.053 220.733 381.155 220.291L384.78 218.858C385.068 218.748 385.311 218.546 385.473 218.284C385.635 218.022 385.707 217.715 385.677 217.408C385.648 217.101 385.519 216.813 385.31 216.587C385.101 216.36 384.824 216.209 384.521 216.155L341.097 208.035C339.789 207.788 338.44 207.877 337.176 208.295L332.445 209.843C332.221 209.915 332.027 210.059 331.894 210.253C331.761 210.447 331.696 210.68 331.709 210.915C331.722 211.15 331.813 211.374 331.967 211.552C332.121 211.73 332.329 211.852 332.559 211.899Z" fill="#3E7CFF"/>
<path d="M332.559 211.899L377.681 220.618C378.846 220.847 380.053 220.733 381.155 220.291L384.78 218.858C385.068 218.748 385.311 218.546 385.473 218.284C385.635 218.022 385.707 217.715 385.677 217.408C385.648 217.101 385.519 216.813 385.31 216.587C385.101 216.36 384.824 216.209 384.521 216.155L341.097 208.035C339.789 207.788 338.44 207.877 337.176 208.295L332.445 209.843C332.221 209.915 332.027 210.059 331.894 210.253C331.761 210.447 331.696 210.68 331.709 210.915C331.722 211.15 331.813 211.374 331.967 211.552C332.121 211.73 332.329 211.852 332.559 211.899Z" fill="url(#paint14_linear_970_1430)"/>
<path d="M332.559 209.94L377.681 218.665C378.846 218.888 380.051 218.775 381.155 218.339L384.78 216.906C385.067 216.795 385.311 216.594 385.473 216.332C385.635 216.07 385.707 215.762 385.677 215.455C385.648 215.149 385.519 214.86 385.31 214.634C385.101 214.408 384.823 214.256 384.52 214.203L341.097 206.064C339.789 205.818 338.44 205.906 337.175 206.318L332.432 207.878C332.206 207.95 332.01 208.095 331.875 208.291C331.741 208.486 331.675 208.722 331.69 208.959C331.705 209.196 331.798 209.422 331.956 209.6C332.113 209.777 332.326 209.897 332.559 209.94ZM169.758 169.822C169.758 169.822 170.876 168.069 173.915 168.238C176.954 168.407 182.537 169.871 182.537 169.871L163.202 211.059H153.795C153.411 211.059 153.033 210.962 152.697 210.777C152.36 210.592 152.076 210.324 151.87 210C151.665 209.675 151.545 209.304 151.521 208.92C151.497 208.537 151.571 208.153 151.735 207.806L169.758 169.822Z" fill="#3E7CFF"/>
<path d="M169.758 169.822C169.758 169.822 170.876 168.069 173.915 168.238C176.954 168.407 182.537 169.871 182.537 169.871L163.202 211.059H153.795C153.411 211.059 153.033 210.962 152.697 210.777C152.36 210.592 152.076 210.324 151.87 210C151.665 209.675 151.545 209.304 151.521 208.92C151.497 208.537 151.571 208.153 151.735 207.806L169.758 169.822Z" fill="url(#paint15_linear_970_1430)"/>
<path d="M171.782 169.822C171.782 169.822 172.906 168.069 175.945 168.238C177.981 168.43 180 168.769 181.987 169.254C182.296 169.324 182.585 169.463 182.833 169.659C183.082 169.856 183.282 170.107 183.421 170.392C183.56 170.677 183.632 170.989 183.634 171.306C183.636 171.623 183.567 171.936 183.431 172.223L166 209.426C165.771 209.915 165.408 210.327 164.954 210.617C164.499 210.906 163.971 211.059 163.432 211.059H155.813C155.429 211.06 155.051 210.963 154.715 210.778C154.378 210.592 154.094 210.325 153.889 210C153.684 209.675 153.564 209.303 153.541 208.92C153.519 208.536 153.594 208.153 153.759 207.806L171.782 169.822Z" fill="#3E7CFF"/>
<path d="M171.782 169.822C171.782 169.822 172.906 168.069 175.945 168.238C177.981 168.43 180 168.769 181.987 169.254C182.296 169.324 182.585 169.463 182.833 169.659C183.082 169.856 183.282 170.107 183.421 170.392C183.56 170.677 183.632 170.989 183.634 171.306C183.636 171.623 183.567 171.936 183.431 172.223L166 209.426C165.771 209.915 165.408 210.327 164.954 210.617C164.499 210.906 163.971 211.059 163.432 211.059H155.813C155.429 211.06 155.051 210.963 154.715 210.778C154.378 210.592 154.094 210.325 153.889 210C153.684 209.675 153.564 209.303 153.541 208.92C153.519 208.536 153.594 208.153 153.759 207.806L171.782 169.822Z" fill="url(#paint16_linear_970_1430)"/>
<path d="M75.6846 246.979C75.6846 246.979 67.1292 221.505 90.7896 190.082C99.7075 178.231 106.837 172.251 112.257 169.397C118.196 166.271 125.223 171.12 124.528 177.802C122.933 193.141 119.93 222.11 119.93 222.346C119.93 222.581 84.1313 251.888 75.6846 246.979Z" fill="#3E7CFF"/>
<path d="M103.695 186.225C103.695 186.225 85.0011 217.612 89.2849 238.224C89.2849 238.224 121.676 225.424 119.906 222.328C118.135 219.233 118.45 186.207 118.45 186.207L103.695 186.225Z" fill="url(#paint17_linear_970_1430)"/>
<path d="M173.782 261.558C170.738 263.124 167.481 264.234 164.115 264.853C163.07 265.047 162.019 265.192 160.967 265.289C152.696 258.945 144.944 251.951 137.784 244.374C122.788 254.943 105.248 264.2 87.0315 262.144C84.7719 261.988 82.5708 261.355 80.5726 260.288C79.2574 259.447 78.0931 258.39 77.1287 257.162C75.5759 255.245 74.3494 252.93 74.2165 250.934C73.9325 246.702 77.4731 245.299 80.9412 243.388C97.591 234.221 115.032 226.574 133.053 220.539C137.017 219.209 141.391 217.963 145.3 219.457C149.21 220.95 151.614 224.747 153.759 228.321L173.782 261.558Z" fill="#3E7CFF"/>
<path d="M173.782 261.558C170.738 263.124 167.481 264.234 164.115 264.853C163.07 265.047 162.019 265.192 160.967 265.289C152.696 258.945 144.944 251.951 137.784 244.374C122.788 254.943 105.248 264.2 87.0315 262.144C84.7719 261.988 82.5708 261.355 80.5726 260.288C79.2574 259.447 78.0931 258.39 77.1287 257.162C75.5759 255.245 74.3494 252.93 74.2165 250.934C73.9325 246.702 77.4731 245.299 80.9412 243.388C97.591 234.221 115.032 226.574 133.053 220.539C137.017 219.209 141.391 217.963 145.3 219.457C149.21 220.95 151.614 224.747 153.759 228.321L173.782 261.558Z" fill="url(#paint18_linear_970_1430)"/>
<path d="M103.695 186.226C103.695 186.226 113.314 215.309 118.148 219.251C122.981 223.194 150.17 198.204 150.17 198.204V188.529L126.933 198.645C126.933 198.645 125.694 174.459 123.374 172.96C121.054 171.46 106.589 169.786 103.695 186.226Z" fill="#3E7CFF"/>
<path d="M102 187.169C102 187.169 111.619 216.252 116.452 220.195C121.286 224.137 148.475 199.147 148.475 199.147V189.473L125.237 199.588C125.237 199.588 123.999 175.403 121.679 173.903C119.359 172.404 104.894 170.729 102 187.169Z" fill="url(#paint19_linear_970_1430)"/>
<path d="M153.016 186.594C153.888 186.274 154.798 186.071 155.723 185.99C157.711 185.736 158.496 185.21 160.496 185.282C162.701 185.282 161.046 186.872 160.411 187.096C159.753 187.261 159.129 187.541 158.569 187.924C157.632 188.723 157.735 190.15 157.59 191.371C157.375 193.153 156.479 194.783 155.088 195.918C153.698 197.052 151.922 197.603 150.134 197.454C149.894 197.459 149.656 197.411 149.437 197.314C149.218 197.216 149.023 197.072 148.865 196.891C148.703 196.598 148.626 196.265 148.642 195.93C148.563 194.249 147.941 191.752 148.835 190.246C149.445 189.188 151.687 186.594 153.016 186.594Z" fill="url(#paint20_linear_970_1430)"/>
<path d="M116.879 144.843C115.609 145.827 114.748 147.246 114.462 148.827C114.185 150.391 114.037 151.974 114.021 153.562C113.88 155.877 113.528 158.174 112.97 160.424C113.137 160.28 113.353 160.206 113.574 160.219C113.666 160.849 113.694 161.487 113.659 162.124L114.655 161.96C114.655 163.52 114.595 165.08 114.474 166.64C116.957 165.358 118.836 163.182 120.655 161.059C120.765 160.943 120.857 160.81 120.927 160.666C120.995 160.431 121.01 160.183 120.969 159.941C120.789 158.827 120.977 157.684 121.507 156.688C122.111 155.745 123.428 155.188 124.395 155.739C125.634 156.446 125.531 158.218 125.887 159.596C126.497 158.376 126.938 157.078 127.199 155.739C127.254 155.237 127.41 154.751 127.658 154.312C127.94 153.962 128.297 153.681 128.703 153.489C131.11 152.207 133.891 151.815 136.558 152.383C138.038 152.709 139.53 153.332 141.023 153.048C141.352 152.943 141.701 152.912 142.044 152.957C142.648 153.102 143.095 153.852 143.699 153.707C143.86 153.642 144.004 153.542 144.123 153.416C144.242 153.29 144.332 153.14 144.388 152.975C145.018 151.598 145.274 150.079 145.13 148.572C144.986 147.064 144.446 145.622 143.566 144.389C144.577 144.655 145.615 144.807 146.66 144.843C142.467 139.02 134.908 135.731 127.839 136.94C126.263 137.143 124.764 137.737 123.477 138.669C122.781 139.244 122.208 139.952 121.793 140.754C121.378 141.555 121.128 142.431 121.06 143.331C120.927 144.643 120.691 144.256 119.568 144.141C118.617 144.053 117.665 144.301 116.879 144.843Z" fill="#3F3D56"/>
<path d="M122.461 158.2C122.461 158.629 122.57 159.052 122.594 159.482C122.637 160.238 122.437 161.078 122.866 161.707C123.141 162.039 123.494 162.297 123.893 162.457C124.009 162.533 124.148 162.567 124.286 162.553C124.373 162.523 124.451 162.472 124.513 162.403C124.574 162.334 124.617 162.25 124.637 162.16C124.808 161.568 124.808 160.939 124.637 160.346C124.474 159.774 124.352 159.189 124.274 158.599C124.238 158.17 124.347 157.547 124.044 157.178C123.331 156.319 122.455 157.444 122.461 158.2Z" fill="url(#paint21_linear_970_1430)"/>
<path d="M173.13 186.641C172.713 186.176 172.078 185.68 171.541 185.988C171.003 186.297 171.142 187.198 171.396 187.802C171.649 188.407 171.958 189.163 172.241 189.84C171.937 189.284 171.552 188.777 171.1 188.334C170.963 188.176 170.778 188.068 170.574 188.026C170.415 188.03 170.262 188.089 170.141 188.192C170.02 188.296 169.938 188.438 169.909 188.594C169.864 188.911 169.895 189.235 170 189.538L170.689 192.198C170.306 191.627 169.789 191.158 169.184 190.831C169.1 190.766 168.999 190.724 168.893 190.71C168.787 190.697 168.679 190.711 168.58 190.753C168.344 190.898 168.363 191.243 168.423 191.515C168.709 192.797 169.141 194.043 169.71 195.227C169.378 194.883 168.894 194.508 168.501 194.737C168.109 194.967 168.187 195.723 168.417 196.219L169.746 199.121C169.847 199.444 170.062 199.719 170.35 199.895C170.955 200.131 171.498 199.496 171.813 198.946C172.827 197.156 173.709 195.295 174.453 193.377C174.876 192.301 175.438 190.892 175.148 189.749C174.858 188.606 173.879 187.494 173.13 186.641Z" fill="url(#paint22_linear_970_1430)"/>
<path d="M186.12 255.414H190.966L193.473 248.37L189.069 246.84L186.12 255.414Z" fill="url(#paint23_linear_970_1430)"/>
<path d="M200.814 235.546C201.303 234.753 201.949 234.068 202.711 233.533C203.095 233.272 203.544 233.124 204.007 233.105C204.471 233.087 204.93 233.2 205.333 233.43C205.653 233.699 205.916 234.028 206.107 234.4C206.298 234.772 206.413 235.178 206.445 235.595C206.814 237.91 206.33 240.269 205.811 242.554C204.707 247.444 203.45 252.295 202.04 257.108C202.025 257.297 201.966 257.481 201.87 257.645C201.774 257.809 201.642 257.95 201.484 258.056C201.326 258.162 201.147 258.232 200.959 258.259C200.77 258.286 200.578 258.271 200.397 258.214C197.572 258.038 194.781 257.495 192.095 256.6C191.694 256.515 191.337 256.29 191.086 255.965C190.989 255.715 190.948 255.447 190.967 255.179C190.986 254.911 191.064 254.651 191.195 254.417C193.811 247.706 196.59 241.46 200.814 235.546Z" fill="#25233A"/>
<path d="M164.852 264.707L168.598 268.02L176.012 265.287L173.776 261.557L164.852 264.707Z" fill="url(#paint24_linear_970_1430)"/>
<path d="M168.598 268.027L172.689 276.202L194.277 270.053C194.277 270.053 195.407 266.316 190.386 265.929C185.365 265.542 176.012 265.318 176.012 265.318L168.598 268.027Z" fill="#25233A"/>
<path d="M167.021 263.547L164.127 264.853C163.082 265.046 162.031 265.192 160.979 265.288C152.708 258.945 144.956 251.951 137.796 244.374C122.8 254.943 105.26 264.2 87.0437 262.144C84.7841 261.988 82.583 261.355 80.5848 260.288C79.2695 259.447 78.1053 258.39 77.1409 257.162C80.9111 259.381 87.1645 257.162 87.1645 257.162C87.1645 257.162 136.268 231.767 139.126 231.271C141.983 230.775 167.021 263.547 167.021 263.547Z" fill="url(#paint25_linear_970_1430)"/>
<path d="M192.802 137.704C192.802 137.704 192.367 146.241 198.01 148.273C203.654 150.304 210.741 137.704 210.741 137.704C210.741 137.704 207.931 137.069 207.176 133.501C203.509 116.317 197.044 136.422 192.802 137.704Z" fill="url(#paint26_linear_970_1430)"/>
<path d="M182.658 129.395C182.658 129.395 184.199 145.116 192.325 147.16C200.452 149.203 205.618 133.803 205.618 133.803C205.618 133.803 211.424 117.877 202.506 117.84C193.588 117.804 179.891 113.034 182.658 129.395Z" fill="url(#paint27_linear_970_1430)"/>
<path d="M225.967 192.917L211.539 197.851C211.086 198.006 210.607 198.068 210.129 198.033C209.652 197.999 209.187 197.868 208.761 197.649C208.336 197.43 207.959 197.127 207.654 196.758C207.348 196.39 207.12 195.964 206.983 195.505L205.11 189.217C204.92 188.577 204.961 187.89 205.225 187.277C205.489 186.664 205.959 186.163 206.554 185.861L219.653 179.282L217.375 155.508L178.259 193.413L178.422 200.064C178.422 200.064 180.525 204.792 191.956 205.506C203.388 206.219 224.97 201.606 224.97 201.606L225.967 192.917Z" fill="url(#paint28_linear_970_1430)"/>
<path d="M206.572 188.577C206.572 188.577 202.947 187.078 200.808 187.707C198.669 188.336 196.929 189.013 196.929 189.013C196.96 189.229 197.038 189.437 197.158 189.62C197.279 189.802 197.438 189.957 197.624 190.071C198.083 190.397 194.833 191.28 192.688 191.776C192.21 191.891 191.796 192.189 191.536 192.607C191.276 193.024 191.191 193.527 191.298 194.007C191.514 194.99 192.03 195.88 192.775 196.556C193.52 197.231 194.457 197.657 195.455 197.774C197.658 198.069 199.879 198.205 202.101 198.179C205.122 197.986 208.524 193.741 208.524 193.741C208.524 193.741 208.131 189.134 206.572 188.577Z" fill="url(#paint29_linear_970_1430)"/>
<path d="M172.688 121.528C172.882 121.692 173.111 121.808 173.358 121.867C173.605 121.926 173.862 121.925 174.108 121.866C173.035 119.993 172.559 117.838 172.743 115.687C173.256 116.255 174.205 116.104 174.845 115.687C175.486 115.269 175.963 114.635 176.658 114.26C177.228 113.977 177.84 113.787 178.471 113.697C181.635 113.043 184.688 111.933 187.534 110.402C189.25 109.477 190.905 108.395 192.772 107.814C197.11 106.478 202.071 108.274 205.031 111.72C205.571 112.414 206.146 113.08 206.753 113.716C207.285 114.146 207.787 114.61 208.258 115.106C209.315 116.388 209.369 118.214 209.23 119.871C208.871 124.079 207.61 128.16 205.533 131.837L205.75 126.395C205.786 125.434 205.611 124.17 204.663 123.976C203.889 123.819 203.231 124.581 202.904 125.288C202.409 126.391 202.235 127.611 202.403 128.807C201.086 128.058 200.282 126.685 199.34 125.494C198.397 124.303 197.092 123.178 195.582 123.287C193.896 123.414 192.754 124.974 191.425 126.026C189.854 127.248 187.876 127.822 185.896 127.628C185.469 127.525 185.024 127.525 184.597 127.628C183.473 128.052 183.431 129.098 182.126 129.019C181.365 128.977 179.413 127.622 178.694 127.205C176.24 125.858 174.172 123.903 172.688 121.528Z" fill="#3F3D56"/>
<path d="M303.788 226.928C303.788 226.928 294.67 233.416 280.556 229.879C266.442 226.342 259.367 223.832 259.367 223.832L243.869 242.812L243.791 242.903L241.912 242.183L235.827 239.867C235.827 239.867 242.582 215.464 246.582 211.117C247.791 209.817 252.37 204.091 259.548 205.947C267.862 208.099 284.441 210.5 295.854 213.033C306.053 215.289 303.788 226.928 303.788 226.928Z" fill="#3E7CFF"/>
<path d="M303.788 226.928C303.788 226.928 294.67 233.416 280.556 229.879C266.442 226.342 259.367 223.832 259.367 223.832L243.869 242.812L243.791 242.903L241.912 242.183L235.827 239.867C235.827 239.867 242.582 215.464 246.582 211.117C247.791 209.817 252.37 204.091 259.548 205.947C267.862 208.099 284.441 210.5 295.854 213.033C306.053 215.289 303.788 226.928 303.788 226.928Z" fill="url(#paint30_linear_970_1430)"/>
<path d="M282.042 220.382L280.556 229.881C266.442 226.344 259.367 223.835 259.367 223.835L243.869 242.814L241.911 242.21L257.82 215.605L282.042 220.382Z" fill="url(#paint31_linear_970_1430)"/>
<path d="M295.855 213.029L226.867 250.311C226.867 250.311 231.193 253.764 232.16 255.414C233.127 257.065 237.507 258.226 237.507 258.226C237.507 258.226 278.405 245.529 282.677 241.749C282.677 241.749 292.948 240.54 297.782 239.724C302.616 238.908 308.005 233.865 310.706 226.93C313.407 219.994 312.295 211.965 312.295 211.965L295.879 213.029H295.855Z" fill="#3E7CFF"/>
<path d="M295.855 213.029L226.867 250.311C226.867 250.311 231.193 253.764 232.16 255.414C233.127 257.065 237.507 258.226 237.507 258.226C237.507 258.226 278.405 245.528 282.677 241.749C282.677 241.749 292.948 240.54 297.782 239.724C302.616 238.908 308.005 233.865 310.706 226.93C313.407 219.994 312.295 211.965 312.295 211.965L295.879 213.029H295.855Z" fill="url(#paint32_linear_970_1430)"/>
<path d="M227.864 251.127L222.317 253.866L229.157 260.638L235.308 257.482L227.864 251.127Z" fill="url(#paint33_linear_970_1430)"/>
<path d="M223.598 253.864C223.598 253.864 215.955 243.447 213.442 244.462C210.928 245.478 210.161 249.904 210.354 250.509C210.499 250.944 217.194 260.28 220.505 264.881C220.997 265.566 221.73 266.038 222.557 266.202C223.384 266.366 224.242 266.209 224.958 265.764L228.534 263.551L230.136 260.147L223.598 253.864Z" fill="#25233A"/>
<path d="M236.45 240.098L234.583 246.138L241.912 242.178L236.45 240.098Z" fill="url(#paint34_linear_970_1430)"/>
<path d="M291.208 214.529L283.094 210.49C283.094 210.49 293.269 200.09 286.393 191.564C286.393 191.564 281.898 188.045 282.695 183.891C283.203 181.261 286.496 175.686 288.834 171.956C289.559 170.799 290.515 169.804 291.642 169.033C292.769 168.262 294.043 167.732 295.383 167.475L309.679 164.736C309.679 164.736 315.497 165.444 317.811 172.784C320.125 180.124 312.259 211.965 312.259 211.965L291.208 214.529Z" fill="#3E7CFF"/>
<path d="M291.208 214.529L283.094 210.49C283.094 210.49 293.269 200.09 286.393 191.564C286.393 191.564 281.898 188.045 282.695 183.891C283.203 181.261 286.496 175.686 288.834 171.956C289.559 170.799 290.515 169.804 291.642 169.033C292.769 168.262 294.043 167.732 295.383 167.475L309.679 164.736C309.679 164.736 315.497 165.444 317.811 172.784C320.125 180.124 312.259 211.965 312.259 211.965L291.208 214.529Z" fill="url(#paint35_linear_970_1430)"/>
<path d="M309.709 164.752C309.709 164.752 299.123 176.186 295.383 173.943C294.892 173.697 294.477 173.321 294.183 172.857C293.889 172.392 293.728 171.856 293.716 171.307C293.716 169.384 295.383 167.491 295.383 167.491C295.383 167.491 298.126 161.965 293.353 162.757H293.269C288.381 163.622 286.731 151.746 288.755 144.303C290.779 136.86 303.661 142.628 304.011 145.186C304.362 147.744 309.709 164.752 309.709 164.752Z" fill="url(#paint36_linear_970_1430)"/>
<path d="M292.477 138.523C293.873 139.037 294.598 140.525 295.371 141.795C297.333 145.032 300.284 147.553 303.787 148.984C305.364 149.625 307.201 150.018 308.724 149.256C307.786 147.554 307.191 145.685 306.972 143.754C306.917 142.635 306.786 141.522 306.579 140.422C305.757 137.187 302.7 135.035 299.643 133.717C297.951 132.917 296.111 132.48 294.241 132.435C293.306 132.418 292.379 132.602 291.521 132.974C290.663 133.346 289.895 133.899 289.269 134.593C288.558 135.508 288.095 136.591 287.927 137.737C287.722 138.947 287.39 141.668 288.815 140.434C290.006 139.394 290.344 137.737 292.477 138.523Z" fill="#3F3D56"/>
<path d="M302.531 152.855C303.087 152.178 303.673 151.531 304.283 150.902C304.513 150.666 304.845 150.418 305.135 150.569C305.251 150.646 305.342 150.755 305.395 150.884C305.61 151.302 305.727 151.764 305.737 152.234C305.747 152.704 305.648 153.171 305.45 153.597C305.252 154.024 304.959 154.4 304.593 154.695C304.227 154.991 303.799 155.199 303.341 155.304C304.718 155.558 301.202 162.076 306.785 166.393C312.005 170.426 315.086 166.846 316.15 166.925C316.319 164.379 309.425 154.403 309.328 151.851C309.36 151.061 309.194 150.275 308.845 149.566C308.144 148.356 305.703 146.826 304.38 147.866C303.196 148.779 302.924 151.519 302.531 152.855Z" fill="#3F3D56"/>
<path d="M317.938 170.758C317.594 170.158 317.101 169.657 316.507 169.303C315.912 168.95 315.237 168.756 314.546 168.741C313.855 168.726 313.171 168.89 312.562 169.217C311.953 169.544 311.438 170.022 311.068 170.607C310.342 171.657 309.843 172.848 309.603 174.103C309.364 175.358 309.39 176.649 309.679 177.893C311.249 184.278 324.783 198.553 324.783 198.553L335.055 217.134C335.055 217.134 332.517 223.392 336.565 218.537C338.565 216.149 343.296 215.768 345.9 215.749C346.513 215.751 347.103 215.52 347.552 215.102C348.001 214.684 348.274 214.112 348.317 213.5C348.317 213.137 348.245 212.896 347.967 212.896C347.03 212.992 341.405 212.333 341.405 212.333L336.384 213.506C336.384 213.506 329.786 195.071 329.472 194.732C329.158 194.394 323.176 179.834 317.938 170.758Z" fill="url(#paint37_linear_970_1430)"/>
<path d="M244.123 187.55L252.836 199.642L264.762 201.106C264.762 201.106 274.248 195.307 276.164 194.316C278.079 193.324 282.043 191.54 282.043 191.54L263.083 187.525L254.346 197.429L252.467 198.252L244.745 187.525L244.123 187.55Z" fill="#3E7CFF"/>
<path d="M244.123 187.55L252.836 199.642L264.762 201.106C264.762 201.106 274.248 195.307 276.164 194.316C278.079 193.324 282.043 191.54 282.043 191.54L263.083 187.525L254.346 197.429L252.467 198.252L244.745 187.525L244.123 187.55Z" fill="url(#paint38_linear_970_1430)"/>
<path d="M247.065 184.617L253.144 196.396L253.524 197.26L254.346 197.448L249.525 184.617H247.065ZM244.123 185.845L252.836 197.792H253.428L247.065 185.845H244.123ZM249.525 183.42L254.346 195.718L259.868 186.207L249.525 183.42Z" fill="#3E7CFF"/>
<path d="M247.065 184.615L253.143 196.394L253.524 197.258L254.346 197.446L249.524 184.615H247.065Z" fill="url(#paint39_linear_970_1430)"/>
<path d="M244.123 185.844L252.836 197.791H253.428L247.065 185.844H244.123Z" fill="url(#paint40_linear_970_1430)"/>
<path d="M249.524 183.42L254.346 195.718L259.868 186.207L249.524 183.42Z" fill="url(#paint41_linear_970_1430)"/>
<path d="M232.16 255.415C232.16 255.415 267.657 242.717 282.079 236.49C284.817 235.298 287.687 234.435 290.628 233.92C294.175 233.315 299.19 232.106 302.531 229.833C308.174 225.987 312.271 218.199 312.271 218.199C312.271 218.199 312.422 235.698 297.77 239.724L282.665 241.75C282.665 241.75 277.396 244.822 267.796 248.165C258.195 251.509 237.495 258.226 237.495 258.226C237.495 258.226 233.399 256.878 233.115 256.588C232.831 256.298 232.16 255.415 232.16 255.415Z" fill="url(#paint42_linear_970_1430)"/>
<path d="M293.716 171.307C293.716 169.384 295.383 167.491 295.383 167.491C295.383 167.491 298.126 161.965 293.353 162.757C301.117 161.481 300.174 156.378 302.005 161.016C305.074 168.791 294.084 171.258 293.716 171.307Z" fill="url(#paint43_linear_970_1430)"/>
<path fill-rule="evenodd" clip-rule="evenodd" d="M247.845 126.772L213.406 92.6923L232.443 73.4023L286.137 126.772H247.845Z" fill="#02539A"/>
<path fill-rule="evenodd" clip-rule="evenodd" d="M212.981 92.719L247.122 58.7168H285.502L232.39 111.612L212.981 92.719Z" fill="#45D1FD" fill-opacity="0.85"/>
<path fill-rule="evenodd" clip-rule="evenodd" d="M183.429 63.0615L202.811 82.3526L285.5 0H246.92L183.429 63.0615Z" fill="#45D1FD"/>
<path fill-rule="evenodd" clip-rule="evenodd" d="M150.789 122.856L135.423 107.65L143.916 99.043L167.874 122.856H150.789Z" fill="#02539A"/>
<path fill-rule="evenodd" clip-rule="evenodd" d="M135.233 107.661L150.466 92.4902H167.59L143.893 116.091L135.233 107.661Z" fill="#45D1FD" fill-opacity="0.85"/>
<path fill-rule="evenodd" clip-rule="evenodd" d="M122.047 94.4299L130.695 103.037L167.589 66.293H150.376L122.047 94.4299Z" fill="#45D1FD"/>
<path fill-rule="evenodd" clip-rule="evenodd" d="M351.372 203.019L342.813 194.55L347.544 189.756L360.888 203.019H351.372Z" fill="#02539A"/>
<path fill-rule="evenodd" clip-rule="evenodd" d="M342.708 194.558L351.193 186.107H360.731L347.531 199.253L342.708 194.558Z" fill="#45D1FD" fill-opacity="0.85"/>
<path fill-rule="evenodd" clip-rule="evenodd" d="M335.364 187.188L340.18 191.982L360.73 171.516H351.143L335.364 187.188Z" fill="#45D1FD"/>
<path fill-rule="evenodd" clip-rule="evenodd" d="M59.3792 248.149L51.9441 240.792L56.054 236.627L67.6462 248.149H59.3792Z" fill="#02539A"/>
<path fill-rule="evenodd" clip-rule="evenodd" d="M51.8523 240.796L59.2231 233.455H67.5091L56.0425 244.875L51.8523 240.796Z" fill="#45D1FD" fill-opacity="0.85"/>
<path fill-rule="evenodd" clip-rule="evenodd" d="M45.4719 234.394L49.6565 238.559L67.5085 220.779H59.1795L45.4719 234.394Z" fill="#45D1FD"/>
<defs>
<linearGradient id="paint0_linear_970_1430" x1="113.308" y1="163.032" x2="142.883" y2="163.032" gradientUnits="userSpaceOnUse">
<stop stop-color="#ECC4D7"/>
<stop offset="0.42" stop-color="#EFD4D1"/>
<stop offset="1" stop-color="#F2EAC9"/>
</linearGradient>
<linearGradient id="paint1_linear_970_1430" x1="0.999386" y1="289.499" x2="443.007" y2="289.499" gradientUnits="userSpaceOnUse">
<stop stop-color="#68E1FD"/>
<stop offset="1" stop-color="#69B9EB"/>
</linearGradient>
<linearGradient id="paint2_linear_970_1430" x1="226.494" y1="272.637" x2="291.014" y2="399.919" gradientUnits="userSpaceOnUse">
<stop offset="0.01" stop-color="#3C3A52" stop-opacity="0"/>
<stop offset="0.86"/>
</linearGradient>
<linearGradient id="paint3_linear_970_1430" x1="216.755" y1="224.248" x2="240.846" y2="340.472" gradientUnits="userSpaceOnUse">
<stop offset="0.01" stop-color="white" stop-opacity="0"/>
<stop offset="0.99" stop-color="white"/>
</linearGradient>
<linearGradient id="paint4_linear_970_1430" x1="268.847" y1="186.999" x2="260.039" y2="208.289" gradientUnits="userSpaceOnUse">
<stop stop-color="#ECC4D7"/>
<stop offset="0.42" stop-color="#EFD4D1"/>
<stop offset="1" stop-color="#F2EAC9"/>
</linearGradient>
<linearGradient id="paint5_linear_970_1430" x1="184.132" y1="173.909" x2="171.577" y2="175.424" gradientUnits="userSpaceOnUse">
<stop offset="0.01" stop-color="white" stop-opacity="0"/>
<stop offset="0.33" stop-color="white" stop-opacity="0.36"/>
<stop offset="0.99" stop-color="white"/>
</linearGradient>
<linearGradient id="paint6_linear_970_1430" x1="197.146" y1="142.213" x2="241.657" y2="154.893" gradientUnits="userSpaceOnUse">
<stop offset="0.01" stop-color="#3C3A52" stop-opacity="0"/>
<stop offset="1"/>
</linearGradient>
<linearGradient id="paint7_linear_970_1430" x1="156.514" y1="189.834" x2="155.843" y2="179.501" gradientUnits="userSpaceOnUse">
<stop stop-color="#ECC4D7"/>
<stop offset="0.42" stop-color="#EFD4D1"/>
<stop offset="1" stop-color="#F2EAC9"/>
</linearGradient>
<linearGradient id="paint8_linear_970_1430" x1="129.319" y1="199.218" x2="201.74" y2="252.896" gradientUnits="userSpaceOnUse">
<stop offset="0.01" stop-color="#3C3A52" stop-opacity="0"/>
<stop offset="1"/>
</linearGradient>
<linearGradient id="paint9_linear_970_1430" x1="7.98218" y1="261.503" x2="412.076" y2="261.503" gradientUnits="userSpaceOnUse">
<stop offset="0.01" stop-color="#3C3A52" stop-opacity="0"/>
<stop offset="0.86"/>
</linearGradient>
<linearGradient id="paint10_linear_970_1430" x1="191.902" y1="223.363" x2="192.676" y2="239.005" gradientUnits="userSpaceOnUse">
<stop offset="0.01" stop-color="white" stop-opacity="0"/>
<stop offset="0.99" stop-color="white"/>
</linearGradient>
<linearGradient id="paint11_linear_970_1430" x1="199.636" y1="195.241" x2="199.993" y2="239.337" gradientUnits="userSpaceOnUse">
<stop offset="0.01" stop-color="white" stop-opacity="0"/>
<stop offset="0.33" stop-color="white" stop-opacity="0.36"/>
<stop offset="0.99" stop-color="white"/>
</linearGradient>
<linearGradient id="paint12_linear_970_1430" x1="89.1943" y1="240.498" x2="189.068" y2="240.498" gradientUnits="userSpaceOnUse">
<stop offset="0.01" stop-color="white" stop-opacity="0"/>
<stop offset="0.99" stop-color="white"/>
</linearGradient>
<linearGradient id="paint13_linear_970_1430" x1="158.919" y1="231.749" x2="136.341" y2="292.215" gradientUnits="userSpaceOnUse">
<stop offset="0.01" stop-color="#3C3A52" stop-opacity="0"/>
<stop offset="0.86"/>
</linearGradient>
<linearGradient id="paint14_linear_970_1430" x1="331.695" y1="214.317" x2="385.65" y2="214.317" gradientUnits="userSpaceOnUse">
<stop offset="0.01" stop-color="#3C3A52" stop-opacity="0"/>
<stop offset="0.86"/>
</linearGradient>
<linearGradient id="paint15_linear_970_1430" x1="160.683" y1="189.642" x2="191.715" y2="189.642" gradientUnits="userSpaceOnUse">
<stop offset="0.01" stop-color="#3C3A52" stop-opacity="0"/>
<stop offset="1"/>
</linearGradient>
<linearGradient id="paint16_linear_970_1430" x1="161.553" y1="182.683" x2="183.799" y2="206.012" gradientUnits="userSpaceOnUse">
<stop offset="0.01" stop-color="#3C3A52" stop-opacity="0"/>
<stop offset="1"/>
</linearGradient>
<linearGradient id="paint17_linear_970_1430" x1="86.3968" y1="195.404" x2="148.842" y2="255.459" gradientUnits="userSpaceOnUse">
<stop offset="0.01" stop-color="#3C3A52" stop-opacity="0"/>
<stop offset="1"/>
</linearGradient>
<linearGradient id="paint18_linear_970_1430" x1="74.1983" y1="242.034" x2="173.782" y2="242.034" gradientUnits="userSpaceOnUse">
<stop offset="0.01" stop-color="white" stop-opacity="0"/>
<stop offset="0.99" stop-color="white"/>
</linearGradient>
<linearGradient id="paint19_linear_970_1430" x1="111.154" y1="197.847" x2="178.374" y2="185.524" gradientUnits="userSpaceOnUse">
<stop offset="0.01" stop-color="#3C3A52" stop-opacity="0"/>
<stop offset="1"/>
</linearGradient>
<linearGradient id="paint20_linear_970_1430" x1="144.243" y1="191.359" x2="157.493" y2="191.359" gradientUnits="userSpaceOnUse">
<stop stop-color="#ECC4D7"/>
<stop offset="0.42" stop-color="#EFD4D1"/>
<stop offset="1" stop-color="#F2EAC9"/>
</linearGradient>
<linearGradient id="paint21_linear_970_1430" x1="124.093" y1="160.739" x2="132.689" y2="178.209" gradientUnits="userSpaceOnUse">
<stop stop-color="#ECC4D7"/>
<stop offset="0.42" stop-color="#EFD4D1"/>
<stop offset="1" stop-color="#F2EAC9"/>
</linearGradient>
<linearGradient id="paint22_linear_970_1430" x1="168.133" y1="192.917" x2="175.19" y2="192.917" gradientUnits="userSpaceOnUse">
<stop stop-color="#ECC4D7"/>
<stop offset="0.42" stop-color="#EFD4D1"/>
<stop offset="1" stop-color="#F2EAC9"/>
</linearGradient>
<linearGradient id="paint23_linear_970_1430" x1="186.12" y1="251.127" x2="193.473" y2="251.127" gradientUnits="userSpaceOnUse">
<stop stop-color="#ECC4D7"/>
<stop offset="0.42" stop-color="#EFD4D1"/>
<stop offset="1" stop-color="#F2EAC9"/>
</linearGradient>
<linearGradient id="paint24_linear_970_1430" x1="164.852" y1="264.791" x2="176.012" y2="264.791" gradientUnits="userSpaceOnUse">
<stop stop-color="#ECC4D7"/>
<stop offset="0.42" stop-color="#EFD4D1"/>
<stop offset="1" stop-color="#F2EAC9"/>
</linearGradient>
<linearGradient id="paint25_linear_970_1430" x1="117.501" y1="264.079" x2="148.714" y2="238.707" gradientUnits="userSpaceOnUse">
<stop offset="0.01" stop-color="white" stop-opacity="0"/>
<stop offset="0.99" stop-color="white"/>
</linearGradient>
<linearGradient id="paint26_linear_970_1430" x1="202.409" y1="132.111" x2="200.987" y2="144.554" gradientUnits="userSpaceOnUse">
<stop stop-color="#ECC4D7"/>
<stop offset="0.42" stop-color="#EFD4D1"/>
<stop offset="0.59" stop-color="#F0DACE"/>
<stop offset="1" stop-color="#F2EAC9"/>
</linearGradient>
<linearGradient id="paint27_linear_970_1430" x1="183.468" y1="133.971" x2="208.734" y2="129.054" gradientUnits="userSpaceOnUse">
<stop stop-color="#ECC4D7"/>
<stop offset="0.42" stop-color="#EFD4D1"/>
<stop offset="1" stop-color="#F2EAC9"/>
</linearGradient>
<linearGradient id="paint28_linear_970_1430" x1="191.117" y1="167.286" x2="262.286" y2="277.979" gradientUnits="userSpaceOnUse">
<stop offset="0.01" stop-color="#3C3A52" stop-opacity="0"/>
<stop offset="1"/>
</linearGradient>
<linearGradient id="paint29_linear_970_1430" x1="191.25" y1="192.876" x2="208.524" y2="192.876" gradientUnits="userSpaceOnUse">
<stop stop-color="#ECC4D7"/>
<stop offset="0.42" stop-color="#EFD4D1"/>
<stop offset="1" stop-color="#F2EAC9"/>
</linearGradient>
<linearGradient id="paint30_linear_970_1430" x1="250.129" y1="199.852" x2="283.932" y2="251.157" gradientUnits="userSpaceOnUse">
<stop offset="0.01" stop-color="#3C3A52" stop-opacity="0"/>
<stop offset="1"/>
</linearGradient>
<linearGradient id="paint31_linear_970_1430" x1="241.911" y1="229.186" x2="282.042" y2="229.186" gradientUnits="userSpaceOnUse">
<stop offset="0.01" stop-color="#3C3A52" stop-opacity="0"/>
<stop offset="1"/>
</linearGradient>
<linearGradient id="paint32_linear_970_1430" x1="262.678" y1="220.055" x2="287.87" y2="260.525" gradientUnits="userSpaceOnUse">
<stop offset="0.01" stop-color="#3C3A52" stop-opacity="0"/>
<stop offset="1"/>
</linearGradient>
<linearGradient id="paint33_linear_970_1430" x1="222.317" y1="255.885" x2="235.308" y2="255.885" gradientUnits="userSpaceOnUse">
<stop stop-color="#ECC4D7"/>
<stop offset="0.42" stop-color="#EFD4D1"/>
<stop offset="1" stop-color="#F2EAC9"/>
</linearGradient>
<linearGradient id="paint34_linear_970_1430" x1="234.583" y1="243.121" x2="241.912" y2="243.121" gradientUnits="userSpaceOnUse">
<stop stop-color="#ECC4D7"/>
<stop offset="0.42" stop-color="#EFD4D1"/>
<stop offset="1" stop-color="#F2EAC9"/>
</linearGradient>
<linearGradient id="paint35_linear_970_1430" x1="276.418" y1="180.282" x2="406.103" y2="230.27" gradientUnits="userSpaceOnUse">
<stop offset="0.01" stop-color="white" stop-opacity="0"/>
<stop offset="0.99" stop-color="white"/>
</linearGradient>
<linearGradient id="paint36_linear_970_1430" x1="287.909" y1="157.442" x2="309.709" y2="157.442" gradientUnits="userSpaceOnUse">
<stop stop-color="#ECC4D7"/>
<stop offset="0.42" stop-color="#EFD4D1"/>
<stop offset="1" stop-color="#F2EAC9"/>
</linearGradient>
<linearGradient id="paint37_linear_970_1430" x1="309.431" y1="194.563" x2="348.323" y2="194.563" gradientUnits="userSpaceOnUse">
<stop stop-color="#ECC4D7"/>
<stop offset="0.42" stop-color="#EFD4D1"/>
<stop offset="1" stop-color="#F2EAC9"/>
</linearGradient>
<linearGradient id="paint38_linear_970_1430" x1="254.944" y1="193.185" x2="303.263" y2="199.983" gradientUnits="userSpaceOnUse">
<stop offset="0.01" stop-color="#3C3A52" stop-opacity="0"/>
<stop offset="1"/>
</linearGradient>
<linearGradient id="paint39_linear_970_1430" x1="247.065" y1="191.03" x2="254.346" y2="191.03" gradientUnits="userSpaceOnUse">
<stop offset="0.01" stop-color="white" stop-opacity="0"/>
<stop offset="0.99" stop-color="white"/>
</linearGradient>
<linearGradient id="paint40_linear_970_1430" x1="244.123" y1="191.818" x2="253.428" y2="191.818" gradientUnits="userSpaceOnUse">
<stop offset="0.01" stop-color="white" stop-opacity="0"/>
<stop offset="0.99" stop-color="white"/>
</linearGradient>
<linearGradient id="paint41_linear_970_1430" x1="249.524" y1="189.569" x2="259.868" y2="189.569" gradientUnits="userSpaceOnUse">
<stop offset="0.01" stop-color="white" stop-opacity="0"/>
<stop offset="0.99" stop-color="white"/>
</linearGradient>
<linearGradient id="paint42_linear_970_1430" x1="232.16" y1="238.213" x2="312.271" y2="238.213" gradientUnits="userSpaceOnUse">
<stop offset="0.01" stop-color="#3C3A52" stop-opacity="0"/>
<stop offset="1"/>
</linearGradient>
<linearGradient id="paint43_linear_970_1430" x1="302.658" y1="162.038" x2="304.042" y2="161.204" gradientUnits="userSpaceOnUse">
<stop stop-color="#ECC4D7"/>
<stop offset="0.42" stop-color="#EFD4D1"/>
<stop offset="1" stop-color="#F2EAC9"/>
</linearGradient>
</defs>
</svg>
