<svg xmlns="http://www.w3.org/2000/svg" width="100%" height="397" viewBox="0 0 365 397" version="1.1"><path d="M 0 198.503 L 0 397.005 182.750 396.753 L 365.500 396.500 365.752 198.250 L 366.005 -0 183.002 -0 L 0 0 0 198.503 " stroke="none" fill="#ffffff" fill-rule="evenodd"/><path d="M 0.490 199 C 0.490 308.175, 0.607 352.837, 0.750 298.250 C 0.893 243.662, 0.893 154.337, 0.750 99.750 C 0.607 45.162, 0.490 89.825, 0.490 199 " stroke="none" fill="white" fill-rule="evenodd"/><path d="M 157.682 34.727 C 153.284 36.985, 150.793 41.734, 151.505 46.500 C 151.833 48.700, 152.529 50.927, 153.051 51.450 C 154.436 52.837, 154.155 56.211, 152.468 58.441 C 150.536 60.996, 150.554 63.394, 152.500 62.607 C 153.325 62.273, 154.787 61.694, 155.750 61.320 C 156.713 60.946, 156.036 61.887, 154.247 63.411 C 152.458 64.935, 151.247 66.591, 151.556 67.091 C 151.865 67.591, 151.641 68, 151.059 68 C 150.477 68, 150 68.512, 150 69.138 C 150 69.937, 151.864 70.082, 156.250 69.627 C 162.468 68.980, 168.372 68.050, 168.546 67.689 C 169.413 65.890, 171.502 56.190, 170.949 56.532 C 169.823 57.227, 166.926 55.928, 167.507 54.988 C 167.780 54.547, 167.102 54.422, 166.001 54.710 C 164.882 55.003, 164 54.741, 164 54.117 C 164 53.502, 164.880 53, 165.955 53 C 167.030 53, 168.976 51.988, 170.280 50.750 C 171.583 49.513, 173.629 47.717, 174.825 46.760 C 177.102 44.938, 177.708 43, 176 43 C 175.450 43, 175 42.103, 175 41.008 C 175 39.912, 173.636 37.800, 171.969 36.314 C 168.415 33.149, 162.119 32.449, 157.682 34.727 " stroke="none" fill="#bfcca9" fill-rule="evenodd"/><path d="M 200.693 36.640 C 200.312 37.022, 200 37.933, 200 38.667 C 200 39.719, 203.179 40, 215.073 40 C 228.890 40, 230.119 39.854, 229.811 38.250 C 229.513 36.698, 227.883 36.469, 215.430 36.224 C 207.706 36.072, 201.074 36.259, 200.693 36.640 " stroke="none" fill="white" fill-rule="evenodd"/><path d="M 175.509 50.540 C 173.948 58.083, 173.731 57.513, 178.675 58.836 C 181.213 59.514, 184.542 60.962, 186.074 62.053 C 187.913 63.362, 189.086 63.671, 189.524 62.960 C 190.602 61.218, 185.482 54.467, 180.568 51.151 L 176.018 48.080 175.509 50.540 " stroke="none" fill="white" fill-rule="evenodd"/><path d="M 179.628 69.528 C 178.523 72.407, 178.952 76.831, 180.690 80.476 C 182.272 83.794, 182.607 83.979, 185.940 83.381 C 189.791 82.691, 193.413 81.083, 191.234 81.030 C 190.537 81.014, 189.215 79.423, 188.296 77.495 C 187.142 75.075, 186.378 74.378, 185.828 75.245 C 185.283 76.102, 185.026 75.842, 185.015 74.424 C 185.007 73.283, 183.933 71.346, 182.628 70.120 C 180.541 68.160, 180.180 68.088, 179.628 69.528 " stroke="none" fill="white" fill-rule="evenodd"/><path d="M 156.109 81.933 C 155.403 82.369, 154.977 83.800, 155.163 85.113 C 155.625 88.382, 160.350 88.553, 160.811 85.318 C 161.162 82.847, 158.144 80.675, 156.109 81.933 " stroke="none" fill="white" fill-rule="evenodd"/><path d="M 183.638 95.500 C 183.322 96.325, 183.499 97, 184.031 97 C 184.564 97, 185 96.325, 185 95.500 C 185 94.675, 184.823 94, 184.607 94 C 184.391 94, 183.955 94.675, 183.638 95.500 " stroke="none" fill="white" fill-rule="evenodd"/><path d="M 137.952 102.052 C 136.384 103.730, 134.231 107.442, 133.166 110.302 L 131.232 115.500 122.125 116.014 C 113.991 116.472, 112.739 116.807, 110.400 119.146 C 108.596 120.949, 107.619 123.202, 107.260 126.382 L 106.740 131 115.518 131 L 124.296 131 120.898 133.310 C 117.607 135.547, 117.502 135.822, 117.578 142.060 C 117.721 153.917, 121.128 159, 128.931 159 C 131.326 159, 132.093 158.478, 132.587 156.511 C 133.509 152.835, 132.493 138.790, 131.119 136.223 C 130.153 134.418, 130.193 134, 131.330 134 C 133.902 134, 138.194 138.151, 137.675 140.136 C 137.407 141.161, 137.570 142, 138.037 142 C 139.694 142, 142 137.507, 142 134.277 L 142 131 152.395 131 L 162.789 131 161.919 134.750 C 160.485 140.925, 160.785 143.797, 162.937 144.480 C 164.002 144.818, 165.066 146.086, 165.300 147.297 C 165.723 149.477, 165.729 149.475, 165.864 147.199 C 165.990 145.072, 166.406 144.914, 171.330 145.113 C 178.858 145.417, 179.264 144.977, 178.452 137.399 L 177.767 131 217.408 131 L 257.050 131 258.026 128.431 C 259.320 125.029, 258.390 121.715, 255.336 118.845 L 252.842 116.500 217.671 116 C 197.617 115.715, 183.070 115.132, 183.825 114.645 C 184.871 113.970, 184.686 113.294, 182.951 111.447 C 180.461 108.797, 178.578 101.062, 180.384 100.900 C 180.998 100.845, 180.375 100.440, 179 100 C 177.625 99.560, 168.468 99.155, 158.651 99.100 L 140.802 99 137.952 102.052 " stroke="none" fill="#bfcca9" fill-rule="evenodd"/><path d="M 185.129 102.693 C 186.393 105.134, 186.909 107.576, 186.567 109.500 C 186.117 112.033, 186.206 112.208, 187.138 110.624 C 188.434 108.418, 186.868 101.966, 184.574 100.061 C 183.663 99.306, 183.861 100.246, 185.129 102.693 " stroke="none" fill="white" fill-rule="evenodd"/><path d="M 68 117.831 C 68 118.313, 69.125 119.922, 70.500 121.405 C 71.875 122.889, 73 124.346, 73 124.644 C 73 124.941, 73.819 126.225, 74.819 127.497 C 76.603 129.765, 76.661 129.772, 77.866 127.842 C 78.542 126.760, 78.818 125.003, 78.480 123.937 C 77.924 122.186, 77.315 121.824, 75.362 122.085 C 75.011 122.132, 74.448 121.784, 74.112 121.312 C 73.026 119.788, 68 116.925, 68 117.831 " stroke="none" fill="white" fill-rule="evenodd"/><path d="M 178.439 120.895 C 178.197 121.136, 178 122.608, 178 124.167 L 178 127 193.031 127 C 206.025 127, 208.148 126.778, 208.691 125.364 C 209.036 124.464, 208.866 123.011, 208.313 122.135 C 207.473 120.803, 204.979 120.535, 193.093 120.499 C 185.274 120.475, 178.680 120.653, 178.439 120.895 " stroke="none" fill="#aabbcc" fill-rule="evenodd"/><path d="M 158 124 C 158 126.533, 158.389 127, 160.500 127 C 162.611 127, 163 126.533, 163 124 C 163 121.467, 162.611 121, 160.500 121 C 158.389 121, 158 121.467, 158 124 " stroke="none" fill="white" fill-rule="evenodd"/><path d="M 159.500 125 C 159.840 125.550, 160.316 126, 160.559 126 C 160.802 126, 161 125.550, 161 125 C 161 124.450, 160.523 124, 159.941 124 C 159.359 124, 159.160 124.450, 159.500 125 " stroke="none" fill="white" fill-rule="evenodd"/><path d="M 168.770 151.945 C 171.118 152.327, 173.563 153.163, 174.202 153.802 C 175.086 154.686, 174.543 154.729, 171.939 153.983 C 170.055 153.442, 167.610 153.014, 166.507 153.032 C 164.527 153.063, 164.526 153.084, 166.441 154.532 C 168.004 155.714, 168.075 156, 166.806 156 C 165.083 156, 162 160.079, 162 162.358 C 162 164.344, 164.223 165, 170.959 165 C 178.188 165, 179.841 163.528, 177.563 159.121 C 176.703 157.459, 176 155.391, 176 154.525 C 176 152.600, 171.981 150.956, 167.685 151.125 C 164.911 151.234, 165.051 151.340, 168.770 151.945 " stroke="none" fill="#aabbcc" fill-rule="evenodd"/><path d="M 291.676 160.401 C 291.356 161.235, 291.921 162.008, 293.069 162.308 C 295.216 162.869, 295.252 162.821, 294.393 160.582 C 293.642 158.624, 292.390 158.541, 291.676 160.401 " stroke="none" fill="white" fill-rule="evenodd"/><path d="M 278.606 162.727 C 278.280 163.054, 278.948 163.976, 280.091 164.776 C 281.392 165.688, 282.521 165.879, 283.111 165.289 C 283.702 164.698, 283.147 163.932, 281.627 163.240 C 280.292 162.631, 278.933 162.401, 278.606 162.727 " stroke="none" fill="white" fill-rule="evenodd"/><path d="M 295.507 163.989 C 295.157 164.555, 295.558 164.723, 296.448 164.382 C 298.180 163.717, 298.497 163, 297.059 163 C 296.541 163, 295.843 163.445, 295.507 163.989 " stroke="none" fill="white" fill-rule="evenodd"/><path d="M 109.943 173.903 L 107 176.846 106.968 217.673 L 106.937 258.500 104.516 261.250 C 101.515 264.660, 101.303 264.658, 100.546 261.210 C 100.209 259.675, 99.052 256.971, 97.976 255.200 C 94.764 249.919, 86 245.700, 86 249.435 C 86 250.224, 85.551 252.050, 85.003 253.493 L 84.005 256.116 80.958 254.316 C 79.282 253.326, 76.814 251.371, 75.473 249.972 C 73.382 247.789, 73.282 247.408, 74.768 247.281 C 81.216 246.730, 83.214 246.148, 84.912 244.325 C 86.823 242.274, 86.814 242.259, 82.844 240.948 C 80.650 240.225, 77.973 238.509, 76.893 237.137 C 75.146 234.916, 75.095 234.476, 76.434 233.137 C 77.908 231.663, 81.992 230.769, 82.008 231.917 C 82.012 232.238, 83.100 233.003, 84.425 233.617 C 86.378 234.522, 86.735 234.473, 86.306 233.356 C 85.944 232.412, 86.285 232.172, 87.389 232.596 C 88.351 232.965, 89 232.701, 89 231.940 C 89 229.727, 90.204 231.765, 90.925 235.199 L 91.618 238.500 92.912 236.123 C 93.822 234.452, 94.001 231.838, 93.517 227.313 C 92.902 221.573, 92.540 220.763, 90.164 219.809 C 88.699 219.220, 86.080 218.043, 84.344 217.193 C 81.418 215.759, 80.981 215.787, 78.344 217.570 C 76.780 218.627, 74.247 220.042, 72.716 220.712 C 69.407 222.162, 66.054 228.857, 66.022 234.081 C 66.010 236.050, 67.123 239.875, 68.496 242.581 C 69.869 245.286, 70.994 247.613, 70.996 247.750 C 70.998 247.887, 69.750 248, 68.223 248 C 66.695 248, 64.447 248.699, 63.226 249.554 C 60.052 251.778, 55.698 261.598, 55.194 267.671 C 54.737 273.181, 55.679 274.716, 62.287 279.228 C 64.734 280.899, 64.774 281.099, 63.505 285.316 C 62.784 287.714, 60.778 292.329, 59.047 295.571 C 57.253 298.933, 56.352 301.617, 56.951 301.817 C 58.916 302.472, 58.234 333.007, 55.850 351.115 C 54.003 365.138, 53.356 367.921, 51.697 368.957 C 49.316 370.444, 48.039 368.994, 48.015 364.776 C 48.004 362.768, 47.211 361.643, 45 360.500 C 42.228 359.066, 41.990 358.514, 41.864 353.224 L 41.728 347.500 40.962 354.808 C 40.171 362.341, 38.420 368, 36.879 368 C 36.395 368, 35.984 367.438, 35.965 366.750 C 35.945 366.063, 35.383 366.479, 34.715 367.675 C 34.002 368.951, 33.633 372.466, 33.823 376.175 L 34.146 382.500 38.323 382.500 C 41.618 382.500, 42.696 382.947, 43.431 384.619 C 44.217 386.410, 45.515 386.835, 51.831 387.369 C 62.581 388.277, 71 388.146, 71 387.070 C 71 386.558, 72.013 385.985, 73.250 385.796 C 74.487 385.607, 75.414 384.980, 75.309 384.402 C 75.203 383.824, 75.020 380.347, 74.901 376.676 C 74.687 370.058, 74.660 370, 71.842 370 C 70.279 370, 69 369.550, 69 369 C 69 368.450, 71.250 368, 74 368 L 79 368 79 372.917 C 79 375.872, 79.499 378.066, 80.250 378.417 C 81.250 378.883, 81.250 379.117, 80.250 379.583 C 79.563 379.904, 79 381.871, 79 383.955 C 79 387.729, 79.017 387.744, 83.750 388.297 C 86.362 388.602, 90.399 388.548, 92.721 388.176 C 98.889 387.188, 96.869 384.951, 89.396 384.495 C 84.001 384.166, 83.500 383.938, 83.500 381.818 C 83.500 379.758, 84.036 379.466, 88.303 379.193 C 90.945 379.024, 93.280 378.349, 93.492 377.693 C 94.525 374.500, 96.862 334.573, 97.278 313.008 L 97.500 301.516 100.330 301.008 L 103.160 300.500 100.485 296.566 C 99.014 294.402, 97.403 291.559, 96.904 290.248 C 96.092 288.113, 95.528 287.913, 91.499 288.333 C 89.024 288.590, 87 288.452, 87 288.024 C 87 287.596, 84.750 286.278, 82 285.095 C 77.664 283.230, 77 282.564, 77 280.079 C 77 276.624, 79.010 275.618, 81.887 277.633 C 83.051 278.449, 84.453 278.838, 85.002 278.499 C 86.397 277.637, 86.251 271.651, 84.800 270.200 C 82.886 268.286, 78.277 268.767, 76.680 271.047 L 75.246 273.094 70.679 270.875 L 66.112 268.656 68.556 265.751 C 70.073 263.948, 71 261.588, 71 259.530 C 71 255.644, 72.639 254.684, 76.050 256.573 C 79.332 258.390, 84.542 258.346, 87.394 256.477 C 89.430 255.143, 89.868 255.136, 90.932 256.418 C 91.600 257.222, 92.007 258.701, 91.837 259.705 C 91.404 262.261, 95.736 268, 98.099 268 C 101.139 268, 101.698 271.016, 99.056 273.156 C 96.988 274.830, 96.950 275.015, 98.639 275.158 C 102.319 275.472, 104.259 274.952, 107.184 272.869 C 109.661 271.105, 110.571 270.939, 112.626 271.876 C 114.376 272.673, 134.874 273, 183.097 273 C 257.052 273, 255.251 273.134, 257.846 267.439 L 259.081 264.728 261.641 267.114 C 263.908 269.228, 264.136 270.053, 263.636 274.342 C 263.119 278.785, 263.214 279.081, 264.786 277.928 C 265.729 277.237, 267.916 275.092, 269.646 273.161 C 272.557 269.914, 273.043 269.723, 276.139 270.611 C 280.992 272.003, 280.814 274.287, 275.427 279.734 C 272.835 282.355, 271.240 283.765, 271.883 282.867 C 272.814 281.564, 272.726 281.109, 271.444 280.617 C 269.050 279.698, 268.296 279.899, 270 281 C 271.291 281.834, 271.263 281.972, 269.800 281.985 C 268.865 281.993, 267.641 282.788, 267.080 283.750 C 266.519 284.712, 266.047 285.122, 266.030 284.661 C 266.014 284.200, 264.593 285.006, 262.874 286.452 C 259.930 288.930, 259.641 288.985, 257.898 287.408 C 256.880 286.486, 256.288 285.343, 256.583 284.866 C 256.877 284.390, 256.672 284, 256.127 284 C 255.085 284, 252.307 287.744, 250.147 292.059 C 249.443 293.466, 247.765 295.286, 246.418 296.104 L 243.969 297.589 246.087 299.863 C 247.251 301.113, 248.804 301.905, 249.538 301.624 C 250.271 301.343, 251.062 301.650, 251.295 302.306 C 251.558 303.047, 252.681 302.481, 254.255 300.812 C 255.649 299.333, 257.040 298.374, 257.346 298.680 C 257.652 298.986, 258.198 298.058, 258.560 296.618 C 258.921 295.178, 259.852 294, 260.627 294 C 261.639 294, 261.858 294.719, 261.401 296.539 C 260.951 298.331, 261.141 298.994, 262.047 298.789 C 264.583 298.218, 264.925 305.188, 263.014 318.500 C 261.850 326.604, 261.125 337.501, 261.088 347.435 C 261.054 356.798, 260.611 363.789, 260.015 364.385 C 258.427 365.973, 258.810 370.713, 260.582 371.393 C 261.452 371.727, 265.224 372, 268.965 372 C 275.030 372, 275.826 372.227, 276.315 374.096 C 277.330 377.978, 276.121 379, 270.515 379 C 267.050 379, 264.818 378.486, 264 377.500 C 262.336 375.496, 262.021 375.572, 258.243 378.903 C 256.122 380.774, 253.334 382.021, 250.243 382.481 C 244.517 383.334, 243 384.443, 243 387.781 L 243 390.316 267.157 389.701 C 280.443 389.363, 291.697 388.703, 292.164 388.236 C 292.632 387.768, 292.722 385.250, 292.364 382.641 C 291.833 378.764, 291.420 378.029, 290.107 378.625 C 289.223 379.026, 286.426 379.539, 283.890 379.764 C 280.342 380.080, 279.141 379.809, 278.672 378.587 C 278.322 377.675, 278.581 376.993, 279.281 376.985 C 280.052 376.975, 279.949 376.613, 279 376 C 277.755 375.195, 277.837 375.028, 279.486 375.015 C 280.578 375.007, 283.831 373.806, 286.716 372.346 C 292.382 369.480, 292.658 368.402, 289.352 362.067 C 288.615 360.655, 288.017 358.600, 288.022 357.500 C 288.028 356.400, 287.300 351.225, 286.405 346 C 284.797 336.617, 284.809 336.323, 287.356 322.120 C 288.774 314.210, 290.752 306.110, 291.752 304.120 C 293.201 301.236, 293.409 299.484, 292.774 295.500 C 292.335 292.750, 291.570 282.814, 291.073 273.421 C 290.501 262.603, 289.632 255.056, 288.704 252.834 C 287.727 250.497, 287.549 248.771, 288.169 247.663 C 288.953 246.261, 288.581 245.998, 285.800 245.985 C 283.985 245.976, 281.825 245.533, 281 245 C 279.787 244.216, 279.931 244.028, 281.750 244.015 C 282.988 244.007, 284 243.550, 284 243 C 284 242.450, 284.985 242, 286.188 242 C 289.936 242, 294.933 237.842, 296.201 233.668 C 297.169 230.485, 297.092 229.298, 295.752 226.668 C 294.864 224.925, 293.850 222.483, 293.498 221.239 C 292.423 217.439, 287.803 215.727, 276.781 215.044 C 276.386 215.020, 276.342 214.273, 276.683 213.385 C 277.187 212.071, 276.854 211.903, 274.901 212.486 C 271.590 213.473, 269.931 215.879, 270.633 218.675 C 270.958 219.968, 270.788 221.583, 270.256 222.263 C 268.837 224.078, 268.042 228, 269.094 228 C 269.592 228, 270 228.675, 270 229.500 C 270 230.325, 269.495 231, 268.878 231 C 268.067 231, 268.079 231.390, 268.919 232.403 C 269.807 233.472, 269.801 233.900, 268.893 234.202 C 266.716 234.928, 268.790 241.947, 271.554 243.207 C 273.953 244.300, 275.024 248, 272.941 248 C 272.359 248, 272.130 248.401, 272.433 248.892 C 272.736 249.382, 271.433 252.361, 269.536 255.510 C 267.640 258.660, 265.914 261.746, 265.702 262.368 C 265.490 262.991, 264.069 262.023, 262.543 260.219 C 258.509 255.446, 251.175 250.623, 249.701 251.774 C 249.040 252.289, 247.492 252.958, 246.259 253.260 C 244.264 253.748, 244.045 253.463, 244.259 250.654 C 244.392 248.919, 245.063 246.905, 245.750 246.179 C 247.459 244.372, 247.319 242.337, 245.437 241.614 C 244.523 241.264, 244.174 240.491, 244.597 239.757 C 244.995 239.066, 244.948 238.838, 244.491 239.252 C 242.757 240.826, 240 236.736, 240.004 232.595 C 240.012 223.635, 247.613 218.140, 255.463 221.420 L 259 222.898 259 200.005 C 259 177.247, 258.986 177.095, 256.587 174.306 L 254.174 171.500 183.530 171.230 L 112.886 170.960 109.943 173.903 " stroke="none" fill="#aabbcc" fill-rule="evenodd"/><path d="M 220.962 183.250 C 214.986 186.264, 211.476 192.910, 212.528 199.222 C 213.399 204.450, 219.284 210.587, 224.334 211.535 C 241.685 214.790, 249.708 190.219, 233.672 182.938 C 228.260 180.481, 226.361 180.528, 220.962 183.250 " stroke="none" fill="#bfcca9" fill-rule="evenodd"/><path d="M 165.897 191.756 C 156.533 207.783, 128.034 257.019, 127.119 258.750 L 125.930 261 182.507 261 L 239.084 261 236.624 256.750 C 235.270 254.412, 228.315 242.375, 221.168 230 C 214.020 217.625, 207.562 206.666, 206.815 205.646 C 205.576 203.954, 204.852 204.803, 198.497 215.396 C 194.669 221.778, 191.297 227, 191.005 227 C 190.582 227, 179.180 207.752, 170.125 191.750 C 168.198 188.344, 167.890 188.345, 165.897 191.756 " stroke="none" fill="#bfcca9" fill-rule="evenodd"/><path d="M 308 201.500 C 308 202.530, 308.655 203.020, 309.750 202.810 C 311.858 202.404, 311.725 200.629, 309.553 200.177 C 308.647 199.988, 308 200.539, 308 201.500 " stroke="none" fill="white" fill-rule="evenodd"/><path d="M 317 201.500 C 317 202.333, 317.889 203, 319 203 C 320.111 203, 321 202.333, 321 201.500 C 321 200.667, 320.111 200, 319 200 C 317.889 200, 317 200.667, 317 201.500 " stroke="none" fill="white" fill-rule="evenodd"/><path d="M 327 201.500 C 327 202.325, 327.675 203, 328.500 203 C 329.325 203, 330 202.325, 330 201.500 C 330 200.675, 329.325 200, 328.500 200 C 327.675 200, 327 200.675, 327 201.500 " stroke="none" fill="white" fill-rule="evenodd"/><path d="M 246.649 226.214 C 242.911 229.570, 242.732 233.741, 246.189 236.961 C 250.020 240.530, 255.709 239.260, 258.441 234.225 C 259.254 232.726, 259.938 232.028, 259.960 232.673 C 260.030 234.740, 254.893 240, 252.804 240 C 251.453 240, 250.970 240.479, 251.342 241.449 C 251.713 242.416, 251.418 242.714, 250.455 242.344 C 249.661 242.040, 249.260 241.388, 249.565 240.895 C 249.869 240.403, 249.123 240, 247.906 240 L 245.694 240 247.847 241.867 C 249.031 242.894, 250.007 244.582, 250.015 245.617 C 250.035 248.055, 250.720 248.930, 255.250 252.307 L 259 255.102 259 247.492 C 259 241.681, 258.705 240.055, 257.750 240.613 C 257.063 241.015, 257.237 240.479, 258.139 239.422 C 261.555 235.416, 261.250 226.565, 257.720 227.260 C 257.049 227.392, 256.580 227.034, 256.679 226.464 C 256.777 225.895, 256.102 225.414, 255.179 225.396 C 254.255 225.379, 252.532 225.041, 251.348 224.646 C 249.811 224.133, 248.469 224.580, 246.649 226.214 " stroke="none" fill="white" fill-rule="evenodd"/><path d="M 272.079 225.583 C 272.127 226.748, 272.364 226.985, 272.683 226.188 C 272.972 225.466, 272.936 224.603, 272.604 224.271 C 272.272 223.939, 272.036 224.529, 272.079 225.583 " stroke="none" fill="white" fill-rule="evenodd"/><path d="M 270.543 234.931 C 269.878 236.007, 271.835 237.498, 272.733 236.600 C 273.063 236.270, 272.782 236, 272.108 236 C 271.434 236, 271.160 235.550, 271.500 235 C 271.840 234.450, 271.893 234, 271.618 234 C 271.343 234, 270.859 234.419, 270.543 234.931 " stroke="none" fill="white" fill-rule="evenodd"/><path d="M 121 243.094 C 121 243.592, 121.413 244, 121.918 244 C 122.423 244, 123.622 244.301, 124.582 244.670 C 125.680 245.091, 126.087 244.950, 125.680 244.291 C 124.825 242.908, 121 241.930, 121 243.094 " stroke="none" fill="white" fill-rule="evenodd"/><path d="M 125.642 247.490 C 125.290 248.409, 125.674 249.816, 126.503 250.646 C 127.832 251.975, 127.998 251.939, 127.985 250.321 C 127.976 249.320, 127.589 247.900, 127.124 247.166 C 126.449 246.101, 126.150 246.167, 125.642 247.490 " stroke="none" fill="white" fill-rule="evenodd"/><path d="M 116.981 248.523 C 115.924 249.796, 115.986 249.943, 117.359 249.416 C 118.261 249.069, 119 248.384, 119 247.893 C 119 246.607, 118.421 246.788, 116.981 248.523 " stroke="none" fill="white" fill-rule="evenodd"/><path d="M 241.667 248.667 C 241.300 249.033, 241 249.798, 241 250.367 C 241 250.993, 241.466 250.934, 242.183 250.217 C 242.834 249.566, 243.134 248.801, 242.850 248.517 C 242.566 248.232, 242.033 248.300, 241.667 248.667 " stroke="none" fill="white" fill-rule="evenodd"/><path d="M 121.146 256.028 C 119.851 257.107, 118.276 257.701, 117.646 257.348 C 116.972 256.971, 117.021 257.267, 117.764 258.067 C 118.818 259.202, 119.477 258.977, 121.741 256.714 C 124.891 253.564, 124.560 253.183, 121.146 256.028 " stroke="none" fill="white" fill-rule="evenodd"/><path d="M 242.627 257.707 C 241.168 259.165, 242.139 261.793, 244.288 262.204 C 246.995 262.722, 249 262.185, 249 260.942 C 249 259.746, 243.420 256.913, 242.627 257.707 " stroke="none" fill="white" fill-rule="evenodd"/><path d="M 86.651 281.756 C 86.394 282.172, 87.221 283.719, 88.490 285.193 L 90.796 287.874 91.197 284.437 C 91.549 281.424, 91.322 281, 89.358 281 C 88.126 281, 86.908 281.340, 86.651 281.756 " stroke="none" fill="white" fill-rule="evenodd"/><path d="M 65.605 284.588 C 64.537 287.371, 64.942 288.002, 67.750 287.921 C 69.263 287.878, 69.938 287.615, 69.250 287.338 C 68.563 287.060, 68 286.222, 68 285.476 C 68 283.426, 66.293 282.793, 65.605 284.588 " stroke="none" fill="white" fill-rule="evenodd"/><path d="M 329.168 284.687 C 327.642 287.538, 327.680 292.455, 329.250 295.264 C 329.938 296.494, 330.540 297.615, 330.588 297.755 C 330.636 297.894, 332.057 297.527, 333.746 296.939 C 336.441 295.999, 337.944 293.713, 338.418 289.833 C 338.463 289.467, 338.837 288.829, 339.250 288.417 C 340.366 287.301, 340.157 284.215, 338.913 283.446 C 338.315 283.077, 337.325 283.275, 336.713 283.887 C 335.210 285.390, 331.267 285.301, 330.751 283.753 C 330.492 282.975, 329.895 283.327, 329.168 284.687 " stroke="none" fill="white" fill-rule="evenodd"/><path d="M 267.872 285.750 C 266.629 287.336, 266.664 287.371, 268.250 286.128 C 269.916 284.821, 270.445 284, 269.622 284 C 269.415 284, 268.627 284.788, 267.872 285.750 " stroke="none" fill="white" fill-rule="evenodd"/><path d="M 111.888 288.500 C 110.451 289.280, 108.697 291.317, 107.990 293.025 C 106.876 295.715, 106.929 296.358, 108.386 297.816 C 109.926 299.356, 115.853 299.523, 177.785 299.769 C 224.740 299.955, 245.040 299.719, 244 299.001 C 242.720 298.116, 242.869 297.636, 245.023 295.725 C 247.790 293.270, 251 289.002, 251 287.777 C 251 287.350, 220.288 287.018, 182.750 287.040 C 125.751 287.073, 114.069 287.314, 111.888 288.500 " stroke="none" fill="#bfcca9" fill-rule="evenodd"/><path d="M 22.429 294.173 C 23.342 301.057, 24.351 302.678, 28.061 303.222 C 32.534 303.879, 34 301.914, 34 295.262 C 34 292.185, 33.716 289.951, 33.369 290.298 C 33.021 290.645, 31.842 290.451, 30.748 289.865 C 29.244 289.060, 28.940 289.093, 29.500 290 C 30.065 290.914, 29.753 290.938, 28.186 290.100 C 27.056 289.495, 25.144 289, 23.937 289 C 21.872 289, 21.783 289.305, 22.429 294.173 " stroke="none" fill="white" fill-rule="evenodd"/><path d="M 79.733 294.124 C 80.412 294.808, 81.219 295.115, 81.526 294.807 C 81.834 294.499, 81.279 293.940, 80.293 293.564 C 78.868 293.022, 78.753 293.136, 79.733 294.124 " stroke="none" fill="white" fill-rule="evenodd"/><path d="M 321 301 C 321.825 301.533, 327 301.923, 332.500 301.866 C 344.647 301.741, 340.877 300.290, 328 300.134 C 322.180 300.063, 319.973 300.336, 321 301 " stroke="none" fill="white" fill-rule="evenodd"/><path d="M 322 306 C 322 306.617, 327.167 307, 335.500 307 C 343.833 307, 349 306.617, 349 306 C 349 305.383, 343.833 305, 335.500 305 C 327.167 305, 322 305.383, 322 306 " stroke="none" fill="white" fill-rule="evenodd"/><path d="M 176.519 309.940 C 175.966 311.683, 176.218 312.686, 177.430 313.573 C 178.706 314.506, 178.795 314.923, 177.803 315.320 C 177.086 315.607, 179.286 315.878, 182.691 315.921 C 186.096 315.964, 189.160 315.550, 189.500 315 C 189.885 314.377, 199.510 314, 215.059 314 C 231.020 314, 240 313.640, 240 313 C 240 312.355, 229.156 312, 209.468 312 L 178.936 312 178.109 309.766 L 177.283 307.533 176.519 309.940 " stroke="none" fill="white" fill-rule="evenodd"/><path d="M 115.183 323 C 115.099 330.975, 115.361 338.022, 115.765 338.660 C 116.169 339.297, 116.378 334.347, 116.228 327.660 C 115.810 308.986, 115.353 306.945, 115.183 323 " stroke="none" fill="white" fill-rule="evenodd"/><path d="M 76.999 310.583 C 76.998 311.087, 76.343 315.220, 75.542 319.767 C 74.178 327.518, 71.767 346.098, 70.635 357.583 C 70.290 361.085, 70.502 362.696, 71.317 362.761 C 71.968 362.813, 73.513 363.165, 74.750 363.544 C 76.704 364.143, 77.017 363.857, 77.132 361.367 C 77.257 358.635, 77.301 358.665, 78.052 362 C 78.689 364.827, 78.813 364.251, 78.697 359 C 78.618 355.425, 78.852 352.023, 79.218 351.441 C 80.893 348.769, 81.092 334.824, 79.621 323.116 C 78.766 316.305, 77.826 310.493, 77.533 310.200 C 77.240 309.906, 76.999 310.079, 76.999 310.583 " stroke="none" fill="white" fill-rule="evenodd"/><path d="M 320.368 310.786 C 321.059 311.905, 334.401 312.108, 341.500 311.108 C 346.680 310.378, 345.613 310.244, 333.691 310.131 C 326.096 310.059, 320.100 310.354, 320.368 310.786 " stroke="none" fill="white" fill-rule="evenodd"/><path d="M 322.500 315.043 C 321.400 315.492, 317.069 315.891, 312.875 315.930 C 308.681 315.968, 303.857 316.279, 302.154 316.619 C 299.398 317.170, 299.178 317.464, 300.153 319.287 C 300.873 320.632, 301.015 324.525, 300.567 330.634 C 299.895 339.785, 299.921 339.941, 302.192 340.427 C 307.765 341.622, 308.185 341.908, 303.750 341.488 C 299.160 341.053, 297.339 342.148, 300.582 343.393 C 301.452 343.727, 313.039 344, 326.332 344.001 L 350.500 344.002 350.294 330.751 L 350.087 317.500 346.294 316.831 C 344.207 316.464, 339.690 315.659, 336.255 315.043 C 332.073 314.293, 329.399 314.251, 328.159 314.915 C 327.140 315.460, 325.900 315.529, 325.403 315.067 C 324.906 314.605, 323.600 314.594, 322.500 315.043 " stroke="none" fill="white" fill-rule="evenodd"/><path d="M 177.298 317.631 C 177.645 317.979, 177.471 319.121, 176.909 320.169 C 175.456 322.884, 176.724 325.988, 179.317 326.063 L 181.500 326.127 179.352 326.993 C 176.987 327.948, 176.064 329.098, 175.538 331.746 C 175.346 332.711, 175.034 334.175, 174.845 335 C 174.628 335.945, 175.235 336.501, 176.487 336.502 C 177.582 336.503, 178.624 337.288, 178.810 338.252 C 178.995 339.213, 179.789 340, 180.573 340 C 181.532 340, 182 341.127, 182 343.440 C 182 346.678, 182.220 346.902, 185.750 347.272 C 188.239 347.532, 187.378 347.720, 183.191 347.832 C 179.278 347.936, 177.117 348.380, 177.500 349 C 177.882 349.618, 186.510 350, 200.059 350 C 214.020 350, 222 349.636, 222 349 C 222 348.450, 221.123 348, 220.052 348 C 218.322 348, 218.221 347.665, 219.150 345 C 219.818 343.085, 220.883 342, 222.098 342 C 224.274 342, 224.540 340.940, 222.800 339.200 C 220.635 337.035, 223.280 336.094, 232.508 335.748 C 237.453 335.563, 227.775 335.312, 211 335.190 C 194.225 335.069, 179.893 334.585, 179.152 334.115 C 178.410 333.645, 177.965 332.414, 178.163 331.380 C 178.486 329.689, 179.832 329.445, 191.511 328.954 C 198.655 328.654, 203.488 328.316, 202.250 328.204 C 201.007 328.091, 200 327.328, 200 326.500 C 200 325.216, 202.911 325, 220.200 325 C 233.459 325, 240.062 324.662, 239.415 324.015 C 238.825 323.425, 226.426 322.924, 208.465 322.765 L 178.500 322.500 178.688 319.750 C 178.792 318.238, 178.379 317, 177.772 317 C 177.164 317, 176.951 317.284, 177.298 317.631 " stroke="none" fill="#bfcca9" fill-rule="evenodd"/><path d="M 183.250 317.728 C 185.313 317.944, 188.688 317.944, 190.750 317.728 C 192.813 317.513, 191.125 317.336, 187 317.336 C 182.875 317.336, 181.188 317.513, 183.250 317.728 " stroke="none" fill="white" fill-rule="evenodd"/><path d="M 299.158 325 C 299.158 326.375, 299.385 326.938, 299.662 326.250 C 299.940 325.563, 299.940 324.438, 299.662 323.750 C 299.385 323.063, 299.158 323.625, 299.158 325 " stroke="none" fill="white" fill-rule="evenodd"/><path d="M 306 328.893 C 306 333.344, 306.387 334.935, 307.582 335.393 C 308.452 335.727, 317.002 336, 326.582 336 L 344 336 344 329.500 L 344 323 325 323 L 306 323 306 328.893 " stroke="none" fill="#aabbcc" fill-rule="evenodd"/><path d="M 322.218 330.154 C 322.464 330.895, 323.468 331.655, 324.448 331.846 C 325.588 332.066, 326.069 331.706, 325.782 330.846 C 325.536 330.105, 324.532 329.345, 323.552 329.154 C 322.412 328.934, 321.931 329.294, 322.218 330.154 " stroke="none" fill="white" fill-rule="evenodd"/><path d="M 14 333 C 14 333.550, 15.912 333.955, 18.250 333.900 C 21.860 333.816, 22.124 333.680, 20 333 C 16.401 331.847, 14 331.847, 14 333 " stroke="none" fill="white" fill-rule="evenodd"/><path d="M 3.644 337.486 C 3.045 339.048, 2.592 375.025, 3.167 375.363 C 3.350 375.471, 5.300 376.434, 7.500 377.504 C 9.700 378.573, 11.813 379.602, 12.196 379.789 C 12.579 379.977, 13.811 378.331, 14.933 376.132 C 17.478 371.143, 20.460 369, 24.856 369 L 28.268 369 27.802 353.677 C 27.546 345.249, 27.009 337.824, 26.609 337.177 C 26.124 336.392, 22.276 336, 15.048 336 C 6.386 336, 4.100 336.298, 3.644 337.486 " stroke="none" fill="#aabbcc" fill-rule="evenodd"/><path d="M 277.079 337.583 C 277.127 338.748, 277.364 338.985, 277.683 338.188 C 277.972 337.466, 277.936 336.603, 277.604 336.271 C 277.272 335.939, 277.036 336.529, 277.079 337.583 " stroke="none" fill="white" fill-rule="evenodd"/><path d="M 169.733 340.124 C 170.412 340.808, 171.219 341.115, 171.526 340.807 C 171.834 340.499, 171.279 339.940, 170.293 339.564 C 168.868 339.022, 168.753 339.136, 169.733 340.124 " stroke="none" fill="white" fill-rule="evenodd"/><path d="M 338.813 339.683 C 339.534 339.972, 340.397 339.936, 340.729 339.604 C 341.061 339.272, 340.471 339.036, 339.417 339.079 C 338.252 339.127, 338.015 339.364, 338.813 339.683 " stroke="none" fill="white" fill-rule="evenodd"/><path d="M 141 340.956 C 153.925 341.255, 165.400 341.191, 166.500 340.813 C 167.600 340.436, 157.025 340.191, 143 340.269 L 117.500 340.412 141 340.956 " stroke="none" fill="white" fill-rule="evenodd"/><path d="M 333.767 342.167 C 334.631 343.031, 335.530 343.048, 337.217 342.235 C 339.361 341.202, 339.290 341.131, 336.050 341.068 C 333.420 341.016, 332.878 341.278, 333.767 342.167 " stroke="none" fill="white" fill-rule="evenodd"/><path d="M 345.500 342 C 345.840 342.550, 346.316 343, 346.559 343 C 346.802 343, 347 342.550, 347 342 C 347 341.450, 346.523 341, 345.941 341 C 345.359 341, 345.160 341.450, 345.500 342 " stroke="none" fill="white" fill-rule="evenodd"/><path d="M 72 358.500 C 72 359.875, 72.450 361, 73 361 C 73.550 361, 74 359.875, 74 358.500 C 74 357.125, 73.550 356, 73 356 C 72.450 356, 72 357.125, 72 358.500 " stroke="none" fill="white" fill-rule="evenodd"/><path d="M 177.217 361.561 C 171.945 365.253, 170.951 371.904, 174.949 376.736 C 181.194 384.286, 193 379.766, 193 369.824 C 193 362.095, 183.531 357.138, 177.217 361.561 " stroke="none" fill="#bfcca9" fill-rule="evenodd"/><path d="M 275.730 363.643 C 275.444 364.114, 275.838 365.080, 276.605 365.789 C 278.151 367.218, 278.447 366.253, 277.110 364.143 C 276.637 363.397, 276.016 363.172, 275.730 363.643 " stroke="none" fill="white" fill-rule="evenodd"/><path d="M 54 376.407 C 54 377.246, 54.725 379.453, 55.611 381.311 C 57.174 384.589, 57.347 384.667, 61.361 383.889 C 63.638 383.448, 65.775 383.068, 66.111 383.044 C 66.448 383.020, 66.508 381.875, 66.245 380.500 C 65.777 378.054, 63.649 377.463, 56.261 377.730 C 55.579 377.754, 55.249 377.406, 55.527 376.956 C 55.805 376.506, 55.575 375.856, 55.016 375.510 C 54.457 375.165, 54 375.568, 54 376.407" stroke="none" fill="white" fill-rule="evenodd"/></svg>